<?xml version="1.0" encoding="UTF-8" standalone="no"?>
<!DOCTYPE svg PUBLIC "-//W3C//DTD SVG 1.1//EN"
 "http://www.w3.org/Graphics/SVG/1.1/DTD/svg11.dtd">
<!-- Generated by graphviz version 2.38.0 (20140413.2041)
 -->
<!-- Title: %3 Pages: 1 -->
<svg width="139pt" height="215pt"
 viewBox="0.00 0.00 138.89 215.38" xmlns="http://www.w3.org/2000/svg" xmlns:xlink="http://www.w3.org/1999/xlink">
<g id="graph0" class="graph" transform="scale(1 1) rotate(0) translate(4 211.38)">
<title>%3</title>
<polygon fill="white" stroke="none" points="-4,4 -4,-211.38 134.89,-211.38 134.89,4 -4,4"/>
<!-- A -->
<g id="node1" class="node"><title>A</title>
<polygon fill="lightgray" stroke="black" points="46.9131,-207.38 23.9131,-207.38 23.9131,-189.38 46.9131,-189.38 46.9131,-207.38"/>
<text text-anchor="middle" x="35.4131" y="-196.18" font-family="Times New Roman,serif" font-size="9.00">A</text>
</g>
<!-- A XOR B -->
<g id="node3" class="node"><title>A XOR B</title>
<ellipse fill="lightblue" stroke="black" cx="93.4131" cy="-37.4767" rx="37.4533" ry="37.4533"/>
<text text-anchor="middle" x="93.4131" y="-35.2767" font-family="Times New Roman,serif" font-size="9.00">A XOR B</text>
</g>
<!-- A&#45;&gt;A XOR B -->
<g id="edge6" class="edge"><title>A&#45;&gt;A XOR B</title>
<path fill="none" stroke="red" stroke-width="0.221779" d="M27.483,-189.109C20.1375,-180.827 9.71903,-167.339 5.41314,-153.38 -0.145002,-135.361 -2.63407,-128.006 5.41314,-110.953 15.1401,-90.341 33.9226,-73.6074 51.6455,-61.4337"/>
<polygon fill="red" stroke="red" stroke-width="0.221779" points="53.764,-64.2303 60.2164,-55.8269 49.9319,-58.3724 53.764,-64.2303"/>
</g>
<!-- 465 -->
<g id="node4" class="node"><title>465</title>
<ellipse fill="white" stroke="black" cx="35.4131" cy="-132.167" rx="21.4286" ry="21.4286"/>
<text text-anchor="middle" x="35.4131" y="-129.967" font-family="Times New Roman,serif" font-size="9.00">465</text>
</g>
<!-- A&#45;&gt;465 -->
<g id="edge5" class="edge"><title>A&#45;&gt;465</title>
<path fill="none" stroke="red" stroke-width="0.223338" d="M35.4131,-189.247C35.4131,-182.704 35.4131,-173.075 35.4131,-163.636"/>
<polygon fill="red" stroke="red" stroke-width="0.223338" points="38.9132,-163.622 35.4131,-153.622 31.9132,-163.622 38.9132,-163.622"/>
</g>
<!-- 36 -->
<g id="node5" class="node"><title>36</title>
<ellipse fill="white" stroke="black" cx="93.4131" cy="-132.167" rx="18.2703" ry="18.2703"/>
<text text-anchor="middle" x="93.4131" y="-129.967" font-family="Times New Roman,serif" font-size="9.00">36</text>
</g>
<!-- A&#45;&gt;36 -->
<g id="edge1" class="edge"><title>A&#45;&gt;36</title>
<path fill="none" stroke="green" stroke-width="0.72262" d="M42.7589,-189.247C50.7605,-180.388 63.8721,-165.872 74.7507,-153.828"/>
<polygon fill="green" stroke="green" stroke-width="0.72262" points="77.3953,-156.122 81.5009,-146.355 72.2006,-151.43 77.3953,-156.122"/>
</g>
<!-- B -->
<g id="node2" class="node"><title>B</title>
<polygon fill="lightgray" stroke="black" points="127.913,-207.38 104.913,-207.38 104.913,-189.38 127.913,-189.38 127.913,-207.38"/>
<text text-anchor="middle" x="116.413" y="-196.18" font-family="Times New Roman,serif" font-size="9.00">B</text>
</g>
<!-- B&#45;&gt;A XOR B -->
<g id="edge4" class="edge"><title>B&#45;&gt;A XOR B</title>
<path fill="none" stroke="red" stroke-width="0.543413" d="M117.371,-189.285C118.362,-180.47 119.843,-165.946 120.413,-153.38 121.268,-134.543 123.757,-129.511 120.413,-110.953 118.663,-101.244 115.694,-91.1371 112.349,-81.6614"/>
<polygon fill="red" stroke="red" stroke-width="0.543413" points="115.54,-80.2017 108.762,-72.0581 108.982,-82.6507 115.54,-80.2017"/>
</g>
<!-- B&#45;&gt;36 -->
<g id="edge3" class="edge"><title>B&#45;&gt;36</title>
<path fill="none" stroke="green" stroke-width="0.668442" d="M113.5,-189.247C110.779,-181.651 106.568,-169.894 102.703,-159.104"/>
<polygon fill="green" stroke="green" stroke-width="0.668442" points="105.971,-157.847 99.304,-149.613 99.3811,-160.208 105.971,-157.847"/>
</g>
<!-- 36&#45;&gt;A XOR B -->
<g id="edge2" class="edge"><title>36&#45;&gt;A XOR B</title>
<path fill="none" stroke="green" stroke-width="0.840258" d="M93.4131,-113.732C93.4131,-105.551 93.4131,-95.3694 93.4131,-85.1653"/>
<polygon fill="green" stroke="green" stroke-width="0.840258" points="96.9132,-85.0269 93.4131,-75.027 89.9132,-85.027 96.9132,-85.0269"/>
</g>
</g>
</svg>
