<?xml version="1.0" encoding="UTF-8" standalone="no"?>
<!DOCTYPE svg PUBLIC "-//W3C//DTD SVG 1.1//EN"
 "http://www.w3.org/Graphics/SVG/1.1/DTD/svg11.dtd">
<!-- Generated by graphviz version 2.38.0 (20140413.2041)
 -->
<!-- Title: %3 Pages: 1 -->
<svg width="134pt" height="222pt"
 viewBox="0.00 0.00 134.23 222.45" xmlns="http://www.w3.org/2000/svg" xmlns:xlink="http://www.w3.org/1999/xlink">
<g id="graph0" class="graph" transform="scale(1 1) rotate(0) translate(4 218.451)">
<title>%3</title>
<polygon fill="white" stroke="none" points="-4,4 -4,-218.451 130.225,-218.451 130.225,4 -4,4"/>
<!-- A -->
<g id="node1" class="node"><title>A</title>
<polygon fill="lightgray" stroke="black" points="72.2487,-214.451 49.2487,-214.451 49.2487,-196.451 72.2487,-196.451 72.2487,-214.451"/>
<text text-anchor="middle" x="60.7487" y="-203.251" font-family="Times New Roman,serif" font-size="9.00">A</text>
</g>
<!-- 820 -->
<g id="node4" class="node"><title>820</title>
<ellipse fill="white" stroke="black" cx="88.7487" cy="-135.702" rx="21.4286" ry="21.4286"/>
<text text-anchor="middle" x="88.7487" y="-133.502" font-family="Times New Roman,serif" font-size="9.00">820</text>
</g>
<!-- A&#45;&gt;820 -->
<g id="edge1" class="edge"><title>A&#45;&gt;820</title>
<path fill="none" stroke="green" stroke-width="0.654646" d="M64.0707,-196.413C67.3074,-188.581 72.419,-176.214 77.1526,-164.76"/>
<polygon fill="green" stroke="green" stroke-width="0.654646" points="80.4054,-166.053 80.9904,-155.474 73.9362,-163.379 80.4054,-166.053"/>
</g>
<!-- 1044 -->
<g id="node5" class="node"><title>1044</title>
<ellipse fill="white" stroke="black" cx="24.7487" cy="-135.702" rx="25" ry="25"/>
<text text-anchor="middle" x="24.7487" y="-133.502" font-family="Times New Roman,serif" font-size="9.00">1044</text>
</g>
<!-- A&#45;&gt;1044 -->
<g id="edge4" class="edge"><title>A&#45;&gt;1044</title>
<path fill="none" stroke="green" stroke-width="0.594921" d="M56.4777,-196.413C52.5781,-189.074 46.5619,-177.752 40.8123,-166.932"/>
<polygon fill="green" stroke="green" stroke-width="0.594921" points="43.8809,-165.248 36.0977,-158.06 37.6994,-168.533 43.8809,-165.248"/>
</g>
<!-- B -->
<g id="node2" class="node"><title>B</title>
<polygon fill="lightgray" stroke="black" points="124.249,-214.451 101.249,-214.451 101.249,-196.451 124.249,-196.451 124.249,-214.451"/>
<text text-anchor="middle" x="112.749" y="-203.251" font-family="Times New Roman,serif" font-size="9.00">B</text>
</g>
<!-- A XOR B -->
<g id="node3" class="node"><title>A XOR B</title>
<ellipse fill="lightblue" stroke="black" cx="88.7487" cy="-37.4767" rx="37.4533" ry="37.4533"/>
<text text-anchor="middle" x="88.7487" y="-35.2767" font-family="Times New Roman,serif" font-size="9.00">A XOR B</text>
</g>
<!-- B&#45;&gt;A XOR B -->
<g id="edge6" class="edge"><title>B&#45;&gt;A XOR B</title>
<path fill="none" stroke="green" stroke-width="0.29551" d="M114.662,-196.354C118.215,-180.027 124.933,-142.063 118.749,-110.953 116.737,-100.836 113.29,-90.3597 109.432,-80.6236"/>
<polygon fill="green" stroke="green" stroke-width="0.29551" points="112.566,-79.0467 105.475,-71.1746 106.109,-81.7505 112.566,-79.0467"/>
</g>
<!-- B&#45;&gt;820 -->
<g id="edge3" class="edge"><title>B&#45;&gt;820</title>
<path fill="none" stroke="red" stroke-width="0.678473" d="M109.901,-196.413C107.193,-188.768 102.954,-176.801 98.9791,-165.581"/>
<polygon fill="red" stroke="red" stroke-width="0.678473" points="102.238,-164.298 95.5996,-156.041 95.6397,-166.636 102.238,-164.298"/>
</g>
<!-- 820&#45;&gt;A XOR B -->
<g id="edge2" class="edge"><title>820&#45;&gt;A XOR B</title>
<path fill="none" stroke="green" stroke-width="0.858859" d="M88.7487,-114.295C88.7487,-105.772 88.7487,-95.4884 88.7487,-85.2835"/>
<polygon fill="green" stroke="green" stroke-width="0.858859" points="92.2488,-85.1727 88.7487,-75.1728 85.2488,-85.1728 92.2488,-85.1727"/>
</g>
<!-- 1044&#45;&gt;A XOR B -->
<g id="edge5" class="edge"><title>1044&#45;&gt;A XOR B</title>
<path fill="none" stroke="red" stroke-width="0.223503" d="M38.0096,-114.764C45.1492,-104.03 54.2103,-90.4059 62.6937,-77.651"/>
<polygon fill="red" stroke="red" stroke-width="0.223503" points="65.82,-79.2704 68.4438,-69.0056 59.9915,-75.3938 65.82,-79.2704"/>
</g>
</g>
</svg>
