<?xml version="1.0" encoding="utf-8" standalone="no"?>
<!DOCTYPE svg PUBLIC "-//W3C//DTD SVG 1.1//EN"
  "http://www.w3.org/Graphics/SVG/1.1/DTD/svg11.dtd">
<!-- Created with matplotlib (https://matplotlib.org/) -->
<svg height="345.6pt" version="1.1" viewBox="0 0 460.8 345.6" width="460.8pt" xmlns="http://www.w3.org/2000/svg" xmlns:xlink="http://www.w3.org/1999/xlink">
 <defs>
  <style type="text/css">
*{stroke-linecap:butt;stroke-linejoin:round;}
  </style>
 </defs>
 <g id="figure_1">
  <g id="patch_1">
   <path d="M 0 345.6 
L 460.8 345.6 
L 460.8 0 
L 0 0 
z
" style="fill:#ffffff;"/>
  </g>
  <g id="axes_1">
   <g id="patch_2">
    <path d="M 57.6 307.584 
L 414.72 307.584 
L 414.72 41.472 
L 57.6 41.472 
z
" style="fill:#ffffff;"/>
   </g>
   <g id="PolyCollection_1">
    <path clip-path="url(#pd272e2e6b4)" d="M 73.832727 57.478737 
L 73.832727 307.584 
L 77.564389 307.584 
L 81.29605 307.584 
L 85.027712 307.584 
L 88.759373 307.584 
L 92.491034 307.584 
L 96.222696 307.584 
L 99.954357 307.584 
L 103.686019 307.584 
L 107.41768 307.584 
L 111.149342 307.584 
L 114.881003 307.584 
L 118.612665 307.584 
L 122.344326 307.584 
L 126.075987 307.584 
L 129.807649 307.584 
L 133.53931 307.584 
L 137.270972 307.584 
L 141.002633 307.584 
L 144.734295 307.584 
L 148.465956 307.584 
L 152.197618 307.584 
L 155.929279 307.584 
L 159.66094 307.584 
L 163.392602 307.584 
L 167.124263 307.584 
L 170.855925 307.584 
L 174.587586 307.584 
L 178.319248 307.584 
L 182.050909 307.584 
L 185.782571 307.584 
L 189.514232 307.584 
L 193.245893 307.584 
L 196.977555 307.584 
L 200.709216 307.584 
L 204.440878 307.584 
L 208.172539 307.584 
L 211.904201 307.584 
L 215.635862 307.584 
L 219.367524 307.584 
L 223.099185 307.584 
L 226.830846 307.584 
L 230.562508 307.584 
L 234.294169 307.584 
L 238.025831 307.584 
L 241.757492 307.584 
L 245.489154 307.584 
L 249.220815 307.584 
L 252.952476 307.584 
L 256.684138 307.584 
L 260.415799 307.584 
L 264.147461 307.584 
L 267.879122 307.584 
L 271.610784 307.584 
L 275.342445 307.584 
L 279.074107 307.584 
L 282.805768 307.584 
L 286.537429 307.584 
L 290.269091 307.584 
L 294.000752 307.584 
L 297.732414 307.584 
L 301.464075 307.584 
L 305.195737 307.584 
L 308.927398 307.584 
L 312.65906 307.584 
L 316.390721 307.584 
L 320.122382 307.584 
L 323.854044 307.584 
L 327.585705 307.584 
L 331.317367 307.584 
L 335.049028 307.584 
L 338.78069 307.584 
L 342.512351 307.584 
L 346.244013 307.584 
L 349.975674 307.584 
L 353.707335 307.584 
L 357.438997 307.584 
L 361.170658 307.584 
L 364.90232 307.584 
L 368.633981 307.584 
L 372.365643 307.584 
L 376.097304 307.584 
L 379.828966 307.584 
L 383.560627 307.584 
L 387.292288 307.584 
L 391.02395 307.584 
L 394.755611 307.584 
L 398.487273 307.584 
L 398.487273 307.584 
L 398.487273 307.584 
L 394.755611 307.584 
L 391.02395 307.584 
L 387.292288 307.584 
L 383.560627 307.584 
L 379.828966 307.584 
L 376.097304 307.584 
L 372.365643 307.584 
L 368.633981 307.584 
L 364.90232 307.584 
L 361.170658 307.584 
L 357.438997 307.584 
L 353.707335 307.584 
L 349.975674 307.584 
L 346.244013 307.584 
L 342.512351 307.584 
L 338.78069 307.584 
L 335.049028 307.584 
L 331.317367 307.584 
L 327.585705 307.584 
L 323.854044 307.584 
L 320.122382 307.584 
L 316.390721 307.584 
L 312.65906 307.584 
L 308.927398 307.584 
L 305.195737 307.584 
L 301.464075 307.584 
L 297.732414 307.584 
L 294.000752 307.584 
L 290.269091 307.584 
L 286.537429 259.230316 
L 282.805768 265.899789 
L 279.074107 270.901895 
L 275.342445 267.567158 
L 271.610784 254.228211 
L 267.879122 255.895579 
L 264.147461 254.228211 
L 260.415799 265.899789 
L 256.684138 264.232421 
L 252.952476 270.901895 
L 249.220815 270.901895 
L 245.489154 270.901895 
L 241.757492 265.899789 
L 238.025831 257.562947 
L 234.294169 267.567158 
L 230.562508 269.234526 
L 226.830846 282.573474 
L 223.099185 264.232421 
L 219.367524 277.571368 
L 215.635862 275.904 
L 211.904201 250.893474 
L 208.172539 259.230316 
L 204.440878 239.221895 
L 200.709216 269.234526 
L 196.977555 275.904 
L 193.245893 284.240842 
L 189.514232 239.221895 
L 185.782571 252.560842 
L 182.050909 200.872421 
L 178.319248 192.535579 
L 174.587586 210.876632 
L 170.855925 225.882947 
L 167.124263 237.554526 
L 163.392602 192.535579 
L 159.66094 192.535579 
L 155.929279 219.213474 
L 152.197618 200.872421 
L 148.465956 180.864 
L 144.734295 239.221895 
L 141.002633 232.552421 
L 137.270972 187.533474 
L 133.53931 229.217684 
L 129.807649 182.531368 
L 126.075987 162.522947 
L 122.344326 159.188211 
L 118.612665 182.531368 
L 114.881003 154.186105 
L 111.149342 157.520842 
L 107.41768 175.861895 
L 103.686019 70.817684 
L 99.954357 57.478737 
L 96.222696 57.478737 
L 92.491034 57.478737 
L 88.759373 57.478737 
L 85.027712 57.478737 
L 81.29605 57.478737 
L 77.564389 57.478737 
L 73.832727 57.478737 
z
" style="fill:#1f77b4;"/>
   </g>
   <g id="PolyCollection_2">
    <path clip-path="url(#pd272e2e6b4)" d="M 73.832727 57.478737 
L 73.832727 57.478737 
L 77.564389 57.478737 
L 81.29605 57.478737 
L 85.027712 57.478737 
L 88.759373 57.478737 
L 92.491034 57.478737 
L 96.222696 57.478737 
L 99.954357 57.478737 
L 103.686019 70.817684 
L 107.41768 175.861895 
L 111.149342 157.520842 
L 114.881003 154.186105 
L 118.612665 182.531368 
L 122.344326 159.188211 
L 126.075987 162.522947 
L 129.807649 182.531368 
L 133.53931 229.217684 
L 137.270972 187.533474 
L 141.002633 232.552421 
L 144.734295 239.221895 
L 148.465956 180.864 
L 152.197618 200.872421 
L 155.929279 219.213474 
L 159.66094 192.535579 
L 163.392602 192.535579 
L 167.124263 237.554526 
L 170.855925 225.882947 
L 174.587586 210.876632 
L 178.319248 192.535579 
L 182.050909 200.872421 
L 185.782571 252.560842 
L 189.514232 239.221895 
L 193.245893 284.240842 
L 196.977555 275.904 
L 200.709216 269.234526 
L 204.440878 239.221895 
L 208.172539 259.230316 
L 211.904201 250.893474 
L 215.635862 275.904 
L 219.367524 277.571368 
L 223.099185 264.232421 
L 226.830846 282.573474 
L 230.562508 269.234526 
L 234.294169 267.567158 
L 238.025831 257.562947 
L 241.757492 265.899789 
L 245.489154 270.901895 
L 249.220815 270.901895 
L 252.952476 270.901895 
L 256.684138 264.232421 
L 260.415799 265.899789 
L 264.147461 254.228211 
L 267.879122 255.895579 
L 271.610784 254.228211 
L 275.342445 267.567158 
L 279.074107 270.901895 
L 282.805768 265.899789 
L 286.537429 259.230316 
L 290.269091 307.584 
L 294.000752 307.584 
L 297.732414 307.584 
L 301.464075 307.584 
L 305.195737 307.584 
L 308.927398 307.584 
L 312.65906 307.584 
L 316.390721 307.584 
L 320.122382 307.584 
L 323.854044 307.584 
L 327.585705 307.584 
L 331.317367 307.584 
L 335.049028 307.584 
L 338.78069 307.584 
L 342.512351 307.584 
L 346.244013 307.584 
L 349.975674 307.584 
L 353.707335 307.584 
L 357.438997 307.584 
L 361.170658 307.584 
L 364.90232 307.584 
L 368.633981 307.584 
L 372.365643 307.584 
L 376.097304 307.584 
L 379.828966 307.584 
L 383.560627 307.584 
L 387.292288 307.584 
L 391.02395 307.584 
L 394.755611 307.584 
L 398.487273 307.584 
L 398.487273 307.584 
L 398.487273 307.584 
L 394.755611 307.584 
L 391.02395 307.584 
L 387.292288 307.584 
L 383.560627 307.584 
L 379.828966 307.584 
L 376.097304 307.584 
L 372.365643 307.584 
L 368.633981 307.584 
L 364.90232 307.584 
L 361.170658 307.584 
L 357.438997 307.584 
L 353.707335 307.584 
L 349.975674 307.584 
L 346.244013 307.584 
L 342.512351 307.584 
L 338.78069 307.584 
L 335.049028 307.584 
L 331.317367 307.584 
L 327.585705 307.584 
L 323.854044 307.584 
L 320.122382 307.584 
L 316.390721 307.584 
L 312.65906 307.584 
L 308.927398 307.584 
L 305.195737 307.584 
L 301.464075 307.584 
L 297.732414 307.584 
L 294.000752 307.584 
L 290.269091 307.584 
L 286.537429 259.230316 
L 282.805768 265.899789 
L 279.074107 270.901895 
L 275.342445 267.567158 
L 271.610784 254.228211 
L 267.879122 255.895579 
L 264.147461 254.228211 
L 260.415799 265.899789 
L 256.684138 264.232421 
L 252.952476 255.895579 
L 249.220815 255.895579 
L 245.489154 242.556632 
L 241.757492 234.219789 
L 238.025831 234.219789 
L 234.294169 235.887158 
L 230.562508 244.224 
L 226.830846 254.228211 
L 223.099185 229.217684 
L 219.367524 239.221895 
L 215.635862 244.224 
L 211.904201 210.876632 
L 208.172539 217.546105 
L 204.440878 180.864 
L 200.709216 222.548211 
L 196.977555 232.552421 
L 193.245893 232.552421 
L 189.514232 187.533474 
L 185.782571 207.541895 
L 182.050909 147.516632 
L 178.319248 124.173474 
L 174.587586 142.514526 
L 170.855925 162.522947 
L 167.124263 174.194526 
L 163.392602 145.849263 
L 159.66094 114.169263 
L 155.929279 122.506105 
L 152.197618 129.175579 
L 148.465956 124.173474 
L 144.734295 122.506105 
L 141.002633 135.845053 
L 137.270972 92.493474 
L 133.53931 57.478737 
L 129.807649 57.478737 
L 126.075987 57.478737 
L 122.344326 57.478737 
L 118.612665 57.478737 
L 114.881003 57.478737 
L 111.149342 57.478737 
L 107.41768 57.478737 
L 103.686019 57.478737 
L 99.954357 57.478737 
L 96.222696 57.478737 
L 92.491034 57.478737 
L 88.759373 57.478737 
L 85.027712 57.478737 
L 81.29605 57.478737 
L 77.564389 57.478737 
L 73.832727 57.478737 
z
" style="fill:#ff7f0e;"/>
   </g>
   <g id="PolyCollection_3">
    <path clip-path="url(#pd272e2e6b4)" d="M 73.832727 57.478737 
L 73.832727 57.478737 
L 77.564389 57.478737 
L 81.29605 57.478737 
L 85.027712 57.478737 
L 88.759373 57.478737 
L 92.491034 57.478737 
L 96.222696 57.478737 
L 99.954357 57.478737 
L 103.686019 57.478737 
L 107.41768 57.478737 
L 111.149342 57.478737 
L 114.881003 57.478737 
L 118.612665 57.478737 
L 122.344326 57.478737 
L 126.075987 57.478737 
L 129.807649 57.478737 
L 133.53931 57.478737 
L 137.270972 92.493474 
L 141.002633 135.845053 
L 144.734295 122.506105 
L 148.465956 124.173474 
L 152.197618 129.175579 
L 155.929279 122.506105 
L 159.66094 114.169263 
L 163.392602 145.849263 
L 167.124263 174.194526 
L 170.855925 162.522947 
L 174.587586 142.514526 
L 178.319248 124.173474 
L 182.050909 147.516632 
L 185.782571 207.541895 
L 189.514232 187.533474 
L 193.245893 232.552421 
L 196.977555 232.552421 
L 200.709216 222.548211 
L 204.440878 180.864 
L 208.172539 217.546105 
L 211.904201 210.876632 
L 215.635862 244.224 
L 219.367524 239.221895 
L 223.099185 229.217684 
L 226.830846 254.228211 
L 230.562508 244.224 
L 234.294169 235.887158 
L 238.025831 234.219789 
L 241.757492 234.219789 
L 245.489154 242.556632 
L 249.220815 255.895579 
L 252.952476 255.895579 
L 256.684138 264.232421 
L 260.415799 265.899789 
L 264.147461 254.228211 
L 267.879122 255.895579 
L 271.610784 254.228211 
L 275.342445 267.567158 
L 279.074107 270.901895 
L 282.805768 265.899789 
L 286.537429 259.230316 
L 290.269091 307.584 
L 294.000752 307.584 
L 297.732414 307.584 
L 301.464075 307.584 
L 305.195737 307.584 
L 308.927398 307.584 
L 312.65906 307.584 
L 316.390721 307.584 
L 320.122382 307.584 
L 323.854044 307.584 
L 327.585705 307.584 
L 331.317367 307.584 
L 335.049028 307.584 
L 338.78069 307.584 
L 342.512351 307.584 
L 346.244013 307.584 
L 349.975674 307.584 
L 353.707335 307.584 
L 357.438997 307.584 
L 361.170658 307.584 
L 364.90232 307.584 
L 368.633981 307.584 
L 372.365643 307.584 
L 376.097304 307.584 
L 379.828966 307.584 
L 383.560627 307.584 
L 387.292288 307.584 
L 391.02395 307.584 
L 394.755611 307.584 
L 398.487273 307.584 
L 398.487273 307.584 
L 398.487273 307.584 
L 394.755611 307.584 
L 391.02395 307.584 
L 387.292288 307.584 
L 383.560627 307.584 
L 379.828966 307.584 
L 376.097304 307.584 
L 372.365643 307.584 
L 368.633981 307.584 
L 364.90232 307.584 
L 361.170658 307.584 
L 357.438997 307.584 
L 353.707335 307.584 
L 349.975674 307.584 
L 346.244013 307.584 
L 342.512351 307.584 
L 338.78069 307.584 
L 335.049028 307.584 
L 331.317367 307.584 
L 327.585705 307.584 
L 323.854044 307.584 
L 320.122382 307.584 
L 316.390721 307.584 
L 312.65906 307.584 
L 308.927398 307.584 
L 305.195737 307.584 
L 301.464075 307.584 
L 297.732414 307.584 
L 294.000752 307.584 
L 290.269091 307.584 
L 286.537429 259.230316 
L 282.805768 265.899789 
L 279.074107 270.901895 
L 275.342445 267.567158 
L 271.610784 254.228211 
L 267.879122 255.895579 
L 264.147461 254.228211 
L 260.415799 265.899789 
L 256.684138 264.232421 
L 252.952476 255.895579 
L 249.220815 235.887158 
L 245.489154 220.880842 
L 241.757492 212.544 
L 238.025831 202.539789 
L 234.294169 199.205053 
L 230.562508 209.209263 
L 226.830846 220.880842 
L 223.099185 197.537684 
L 219.367524 205.874526 
L 215.635862 210.876632 
L 211.904201 182.531368 
L 208.172539 199.205053 
L 204.440878 130.842947 
L 200.709216 169.192421 
L 196.977555 172.527158 
L 193.245893 170.859789 
L 189.514232 144.181895 
L 185.782571 165.857684 
L 182.050909 124.173474 
L 178.319248 105.832421 
L 174.587586 114.169263 
L 170.855925 89.158737 
L 167.124263 89.158737 
L 163.392602 92.493474 
L 159.66094 64.148211 
L 155.929279 59.146105 
L 152.197618 59.146105 
L 148.465956 57.478737 
L 144.734295 55.811368 
L 141.002633 57.478737 
L 137.270972 57.478737 
L 133.53931 57.478737 
L 129.807649 57.478737 
L 126.075987 57.478737 
L 122.344326 57.478737 
L 118.612665 57.478737 
L 114.881003 57.478737 
L 111.149342 57.478737 
L 107.41768 57.478737 
L 103.686019 57.478737 
L 99.954357 57.478737 
L 96.222696 57.478737 
L 92.491034 57.478737 
L 88.759373 57.478737 
L 85.027712 57.478737 
L 81.29605 57.478737 
L 77.564389 57.478737 
L 73.832727 57.478737 
z
" style="fill:#2ca02c;"/>
   </g>
   <g id="PolyCollection_4">
    <path clip-path="url(#pd272e2e6b4)" d="M 73.832727 57.478737 
L 73.832727 57.478737 
L 77.564389 57.478737 
L 81.29605 57.478737 
L 85.027712 57.478737 
L 88.759373 57.478737 
L 92.491034 57.478737 
L 96.222696 57.478737 
L 99.954357 57.478737 
L 103.686019 57.478737 
L 107.41768 57.478737 
L 111.149342 57.478737 
L 114.881003 57.478737 
L 118.612665 57.478737 
L 122.344326 57.478737 
L 126.075987 57.478737 
L 129.807649 57.478737 
L 133.53931 57.478737 
L 137.270972 57.478737 
L 141.002633 57.478737 
L 144.734295 55.811368 
L 148.465956 57.478737 
L 152.197618 59.146105 
L 155.929279 59.146105 
L 159.66094 64.148211 
L 163.392602 92.493474 
L 167.124263 89.158737 
L 170.855925 89.158737 
L 174.587586 114.169263 
L 178.319248 105.832421 
L 182.050909 124.173474 
L 185.782571 165.857684 
L 189.514232 144.181895 
L 193.245893 170.859789 
L 196.977555 172.527158 
L 200.709216 169.192421 
L 204.440878 130.842947 
L 208.172539 199.205053 
L 211.904201 182.531368 
L 215.635862 210.876632 
L 219.367524 205.874526 
L 223.099185 197.537684 
L 226.830846 220.880842 
L 230.562508 209.209263 
L 234.294169 199.205053 
L 238.025831 202.539789 
L 241.757492 212.544 
L 245.489154 220.880842 
L 249.220815 235.887158 
L 252.952476 255.895579 
L 256.684138 264.232421 
L 260.415799 265.899789 
L 264.147461 254.228211 
L 267.879122 255.895579 
L 271.610784 254.228211 
L 275.342445 267.567158 
L 279.074107 270.901895 
L 282.805768 265.899789 
L 286.537429 259.230316 
L 290.269091 307.584 
L 294.000752 307.584 
L 297.732414 307.584 
L 301.464075 307.584 
L 305.195737 307.584 
L 308.927398 307.584 
L 312.65906 307.584 
L 316.390721 307.584 
L 320.122382 307.584 
L 323.854044 307.584 
L 327.585705 307.584 
L 331.317367 307.584 
L 335.049028 307.584 
L 338.78069 307.584 
L 342.512351 307.584 
L 346.244013 307.584 
L 349.975674 307.584 
L 353.707335 307.584 
L 357.438997 307.584 
L 361.170658 307.584 
L 364.90232 307.584 
L 368.633981 307.584 
L 372.365643 307.584 
L 376.097304 307.584 
L 379.828966 307.584 
L 383.560627 307.584 
L 387.292288 307.584 
L 391.02395 307.584 
L 394.755611 307.584 
L 398.487273 307.584 
L 398.487273 307.584 
L 398.487273 307.584 
L 394.755611 307.584 
L 391.02395 307.584 
L 387.292288 307.584 
L 383.560627 307.584 
L 379.828966 307.584 
L 376.097304 307.584 
L 372.365643 307.584 
L 368.633981 307.584 
L 364.90232 307.584 
L 361.170658 307.584 
L 357.438997 307.584 
L 353.707335 307.584 
L 349.975674 307.584 
L 346.244013 307.584 
L 342.512351 307.584 
L 338.78069 307.584 
L 335.049028 307.584 
L 331.317367 307.584 
L 327.585705 307.584 
L 323.854044 307.584 
L 320.122382 307.584 
L 316.390721 307.584 
L 312.65906 307.584 
L 308.927398 307.584 
L 305.195737 262.565053 
L 301.464075 265.899789 
L 297.732414 265.899789 
L 294.000752 265.899789 
L 290.269091 264.232421 
L 286.537429 225.882947 
L 282.805768 227.550316 
L 279.074107 239.221895 
L 275.342445 229.217684 
L 271.610784 224.215579 
L 267.879122 210.876632 
L 264.147461 217.546105 
L 260.415799 220.880842 
L 256.684138 230.885053 
L 252.952476 220.880842 
L 249.220815 200.872421 
L 245.489154 192.535579 
L 241.757492 192.535579 
L 238.025831 175.861895 
L 234.294169 165.857684 
L 230.562508 170.859789 
L 226.830846 167.525053 
L 223.099185 155.853474 
L 219.367524 140.847158 
L 215.635862 129.175579 
L 211.904201 132.510316 
L 208.172539 112.501895 
L 204.440878 82.489263 
L 200.709216 79.154526 
L 196.977555 74.152421 
L 193.245893 72.485053 
L 189.514232 90.826105 
L 185.782571 84.156632 
L 182.050909 62.480842 
L 178.319248 55.811368 
L 174.587586 55.811368 
L 170.855925 55.811368 
L 167.124263 59.146105 
L 163.392602 59.146105 
L 159.66094 59.146105 
L 155.929279 59.146105 
L 152.197618 59.146105 
L 148.465956 57.478737 
L 144.734295 55.811368 
L 141.002633 57.478737 
L 137.270972 57.478737 
L 133.53931 57.478737 
L 129.807649 57.478737 
L 126.075987 57.478737 
L 122.344326 57.478737 
L 118.612665 57.478737 
L 114.881003 57.478737 
L 111.149342 57.478737 
L 107.41768 57.478737 
L 103.686019 57.478737 
L 99.954357 57.478737 
L 96.222696 57.478737 
L 92.491034 57.478737 
L 88.759373 57.478737 
L 85.027712 57.478737 
L 81.29605 57.478737 
L 77.564389 57.478737 
L 73.832727 57.478737 
z
" style="fill:#d62728;"/>
   </g>
   <g id="PolyCollection_5">
    <path clip-path="url(#pd272e2e6b4)" d="M 73.832727 57.478737 
L 73.832727 57.478737 
L 77.564389 57.478737 
L 81.29605 57.478737 
L 85.027712 57.478737 
L 88.759373 57.478737 
L 92.491034 57.478737 
L 96.222696 57.478737 
L 99.954357 57.478737 
L 103.686019 57.478737 
L 107.41768 57.478737 
L 111.149342 57.478737 
L 114.881003 57.478737 
L 118.612665 57.478737 
L 122.344326 57.478737 
L 126.075987 57.478737 
L 129.807649 57.478737 
L 133.53931 57.478737 
L 137.270972 57.478737 
L 141.002633 57.478737 
L 144.734295 55.811368 
L 148.465956 57.478737 
L 152.197618 59.146105 
L 155.929279 59.146105 
L 159.66094 59.146105 
L 163.392602 59.146105 
L 167.124263 59.146105 
L 170.855925 55.811368 
L 174.587586 55.811368 
L 178.319248 55.811368 
L 182.050909 62.480842 
L 185.782571 84.156632 
L 189.514232 90.826105 
L 193.245893 72.485053 
L 196.977555 74.152421 
L 200.709216 79.154526 
L 204.440878 82.489263 
L 208.172539 112.501895 
L 211.904201 132.510316 
L 215.635862 129.175579 
L 219.367524 140.847158 
L 223.099185 155.853474 
L 226.830846 167.525053 
L 230.562508 170.859789 
L 234.294169 165.857684 
L 238.025831 175.861895 
L 241.757492 192.535579 
L 245.489154 192.535579 
L 249.220815 200.872421 
L 252.952476 220.880842 
L 256.684138 230.885053 
L 260.415799 220.880842 
L 264.147461 217.546105 
L 267.879122 210.876632 
L 271.610784 224.215579 
L 275.342445 229.217684 
L 279.074107 239.221895 
L 282.805768 227.550316 
L 286.537429 225.882947 
L 290.269091 264.232421 
L 294.000752 265.899789 
L 297.732414 265.899789 
L 301.464075 265.899789 
L 305.195737 262.565053 
L 308.927398 307.584 
L 312.65906 307.584 
L 316.390721 307.584 
L 320.122382 307.584 
L 323.854044 307.584 
L 327.585705 307.584 
L 331.317367 307.584 
L 335.049028 307.584 
L 338.78069 307.584 
L 342.512351 307.584 
L 346.244013 307.584 
L 349.975674 307.584 
L 353.707335 307.584 
L 357.438997 307.584 
L 361.170658 307.584 
L 364.90232 307.584 
L 368.633981 307.584 
L 372.365643 307.584 
L 376.097304 307.584 
L 379.828966 307.584 
L 383.560627 307.584 
L 387.292288 307.584 
L 391.02395 307.584 
L 394.755611 307.584 
L 398.487273 307.584 
L 398.487273 257.562947 
L 398.487273 257.562947 
L 394.755611 257.562947 
L 391.02395 259.230316 
L 387.292288 270.901895 
L 383.560627 269.234526 
L 379.828966 269.234526 
L 376.097304 274.236632 
L 372.365643 274.236632 
L 368.633981 267.567158 
L 364.90232 270.901895 
L 361.170658 272.569263 
L 357.438997 269.234526 
L 353.707335 262.565053 
L 349.975674 264.232421 
L 346.244013 260.897684 
L 342.512351 255.895579 
L 338.78069 257.562947 
L 335.049028 264.232421 
L 331.317367 267.567158 
L 327.585705 269.234526 
L 323.854044 265.899789 
L 320.122382 260.897684 
L 316.390721 262.565053 
L 312.65906 254.228211 
L 308.927398 235.887158 
L 305.195737 205.874526 
L 301.464075 197.537684 
L 297.732414 200.872421 
L 294.000752 209.209263 
L 290.269091 200.872421 
L 286.537429 175.861895 
L 282.805768 182.531368 
L 279.074107 187.533474 
L 275.342445 177.529263 
L 271.610784 162.522947 
L 267.879122 139.179789 
L 264.147461 137.512421 
L 260.415799 179.196632 
L 256.684138 189.200842 
L 252.952476 192.535579 
L 249.220815 147.516632 
L 245.489154 167.525053 
L 241.757492 160.855579 
L 238.025831 147.516632 
L 234.294169 132.510316 
L 230.562508 159.188211 
L 226.830846 142.514526 
L 223.099185 134.177684 
L 219.367524 110.834526 
L 215.635862 102.497684 
L 211.904201 104.165053 
L 208.172539 85.824 
L 204.440878 65.815579 
L 200.709216 57.478737 
L 196.977555 57.478737 
L 193.245893 57.478737 
L 189.514232 59.146105 
L 185.782571 57.478737 
L 182.050909 55.811368 
L 178.319248 55.811368 
L 174.587586 55.811368 
L 170.855925 55.811368 
L 167.124263 59.146105 
L 163.392602 59.146105 
L 159.66094 59.146105 
L 155.929279 59.146105 
L 152.197618 59.146105 
L 148.465956 57.478737 
L 144.734295 55.811368 
L 141.002633 57.478737 
L 137.270972 57.478737 
L 133.53931 57.478737 
L 129.807649 57.478737 
L 126.075987 57.478737 
L 122.344326 57.478737 
L 118.612665 57.478737 
L 114.881003 57.478737 
L 111.149342 57.478737 
L 107.41768 57.478737 
L 103.686019 57.478737 
L 99.954357 57.478737 
L 96.222696 57.478737 
L 92.491034 57.478737 
L 88.759373 57.478737 
L 85.027712 57.478737 
L 81.29605 57.478737 
L 77.564389 57.478737 
L 73.832727 57.478737 
z
" style="fill:#9467bd;"/>
   </g>
   <g id="PolyCollection_6">
    <path clip-path="url(#pd272e2e6b4)" d="M 73.832727 57.478737 
L 73.832727 57.478737 
L 77.564389 57.478737 
L 81.29605 57.478737 
L 85.027712 57.478737 
L 88.759373 57.478737 
L 92.491034 57.478737 
L 96.222696 57.478737 
L 99.954357 57.478737 
L 103.686019 57.478737 
L 107.41768 57.478737 
L 111.149342 57.478737 
L 114.881003 57.478737 
L 118.612665 57.478737 
L 122.344326 57.478737 
L 126.075987 57.478737 
L 129.807649 57.478737 
L 133.53931 57.478737 
L 137.270972 57.478737 
L 141.002633 57.478737 
L 144.734295 55.811368 
L 148.465956 57.478737 
L 152.197618 59.146105 
L 155.929279 59.146105 
L 159.66094 59.146105 
L 163.392602 59.146105 
L 167.124263 59.146105 
L 170.855925 55.811368 
L 174.587586 55.811368 
L 178.319248 55.811368 
L 182.050909 55.811368 
L 185.782571 57.478737 
L 189.514232 59.146105 
L 193.245893 57.478737 
L 196.977555 57.478737 
L 200.709216 57.478737 
L 204.440878 65.815579 
L 208.172539 85.824 
L 211.904201 104.165053 
L 215.635862 102.497684 
L 219.367524 110.834526 
L 223.099185 134.177684 
L 226.830846 142.514526 
L 230.562508 159.188211 
L 234.294169 132.510316 
L 238.025831 147.516632 
L 241.757492 160.855579 
L 245.489154 167.525053 
L 249.220815 147.516632 
L 252.952476 192.535579 
L 256.684138 189.200842 
L 260.415799 179.196632 
L 264.147461 137.512421 
L 267.879122 139.179789 
L 271.610784 162.522947 
L 275.342445 177.529263 
L 279.074107 187.533474 
L 282.805768 182.531368 
L 286.537429 175.861895 
L 290.269091 200.872421 
L 294.000752 209.209263 
L 297.732414 200.872421 
L 301.464075 197.537684 
L 305.195737 205.874526 
L 308.927398 235.887158 
L 312.65906 254.228211 
L 316.390721 262.565053 
L 320.122382 260.897684 
L 323.854044 265.899789 
L 327.585705 269.234526 
L 331.317367 267.567158 
L 335.049028 264.232421 
L 338.78069 257.562947 
L 342.512351 255.895579 
L 346.244013 260.897684 
L 349.975674 264.232421 
L 353.707335 262.565053 
L 357.438997 269.234526 
L 361.170658 272.569263 
L 364.90232 270.901895 
L 368.633981 267.567158 
L 372.365643 274.236632 
L 376.097304 274.236632 
L 379.828966 269.234526 
L 383.560627 269.234526 
L 387.292288 270.901895 
L 391.02395 259.230316 
L 394.755611 257.562947 
L 398.487273 257.562947 
L 398.487273 257.562947 
L 398.487273 257.562947 
L 394.755611 257.562947 
L 391.02395 259.230316 
L 387.292288 270.901895 
L 383.560627 269.234526 
L 379.828966 269.234526 
L 376.097304 274.236632 
L 372.365643 274.236632 
L 368.633981 267.567158 
L 364.90232 270.901895 
L 361.170658 272.569263 
L 357.438997 269.234526 
L 353.707335 262.565053 
L 349.975674 264.232421 
L 346.244013 260.897684 
L 342.512351 255.895579 
L 338.78069 257.562947 
L 335.049028 264.232421 
L 331.317367 267.567158 
L 327.585705 269.234526 
L 323.854044 265.899789 
L 320.122382 260.897684 
L 316.390721 262.565053 
L 312.65906 254.228211 
L 308.927398 235.887158 
L 305.195737 184.198737 
L 301.464075 144.181895 
L 297.732414 162.522947 
L 294.000752 177.529263 
L 290.269091 169.192421 
L 286.537429 159.188211 
L 282.805768 164.190316 
L 279.074107 174.194526 
L 275.342445 160.855579 
L 271.610784 150.851368 
L 267.879122 124.173474 
L 264.147461 114.169263 
L 260.415799 154.186105 
L 256.684138 160.855579 
L 252.952476 154.186105 
L 249.220815 115.836632 
L 245.489154 132.510316 
L 241.757492 134.177684 
L 238.025831 129.175579 
L 234.294169 124.173474 
L 230.562508 114.169263 
L 226.830846 107.499789 
L 223.099185 92.493474 
L 219.367524 74.152421 
L 215.635862 72.485053 
L 211.904201 72.485053 
L 208.172539 67.482947 
L 204.440878 62.480842 
L 200.709216 57.478737 
L 196.977555 57.478737 
L 193.245893 57.478737 
L 189.514232 59.146105 
L 185.782571 57.478737 
L 182.050909 55.811368 
L 178.319248 55.811368 
L 174.587586 55.811368 
L 170.855925 55.811368 
L 167.124263 59.146105 
L 163.392602 59.146105 
L 159.66094 59.146105 
L 155.929279 59.146105 
L 152.197618 59.146105 
L 148.465956 57.478737 
L 144.734295 55.811368 
L 141.002633 57.478737 
L 137.270972 57.478737 
L 133.53931 57.478737 
L 129.807649 57.478737 
L 126.075987 57.478737 
L 122.344326 57.478737 
L 118.612665 57.478737 
L 114.881003 57.478737 
L 111.149342 57.478737 
L 107.41768 57.478737 
L 103.686019 57.478737 
L 99.954357 57.478737 
L 96.222696 57.478737 
L 92.491034 57.478737 
L 88.759373 57.478737 
L 85.027712 57.478737 
L 81.29605 57.478737 
L 77.564389 57.478737 
L 73.832727 57.478737 
z
" style="fill:#8c564b;"/>
   </g>
   <g id="PolyCollection_7">
    <path clip-path="url(#pd272e2e6b4)" d="M 73.832727 57.478737 
L 73.832727 57.478737 
L 77.564389 57.478737 
L 81.29605 57.478737 
L 85.027712 57.478737 
L 88.759373 57.478737 
L 92.491034 57.478737 
L 96.222696 57.478737 
L 99.954357 57.478737 
L 103.686019 57.478737 
L 107.41768 57.478737 
L 111.149342 57.478737 
L 114.881003 57.478737 
L 118.612665 57.478737 
L 122.344326 57.478737 
L 126.075987 57.478737 
L 129.807649 57.478737 
L 133.53931 57.478737 
L 137.270972 57.478737 
L 141.002633 57.478737 
L 144.734295 55.811368 
L 148.465956 57.478737 
L 152.197618 59.146105 
L 155.929279 59.146105 
L 159.66094 59.146105 
L 163.392602 59.146105 
L 167.124263 59.146105 
L 170.855925 55.811368 
L 174.587586 55.811368 
L 178.319248 55.811368 
L 182.050909 55.811368 
L 185.782571 57.478737 
L 189.514232 59.146105 
L 193.245893 57.478737 
L 196.977555 57.478737 
L 200.709216 57.478737 
L 204.440878 62.480842 
L 208.172539 67.482947 
L 211.904201 72.485053 
L 215.635862 72.485053 
L 219.367524 74.152421 
L 223.099185 92.493474 
L 226.830846 107.499789 
L 230.562508 114.169263 
L 234.294169 124.173474 
L 238.025831 129.175579 
L 241.757492 134.177684 
L 245.489154 132.510316 
L 249.220815 115.836632 
L 252.952476 154.186105 
L 256.684138 160.855579 
L 260.415799 154.186105 
L 264.147461 114.169263 
L 267.879122 124.173474 
L 271.610784 150.851368 
L 275.342445 160.855579 
L 279.074107 174.194526 
L 282.805768 164.190316 
L 286.537429 159.188211 
L 290.269091 169.192421 
L 294.000752 177.529263 
L 297.732414 162.522947 
L 301.464075 144.181895 
L 305.195737 184.198737 
L 308.927398 235.887158 
L 312.65906 254.228211 
L 316.390721 262.565053 
L 320.122382 260.897684 
L 323.854044 265.899789 
L 327.585705 269.234526 
L 331.317367 267.567158 
L 335.049028 264.232421 
L 338.78069 257.562947 
L 342.512351 255.895579 
L 346.244013 260.897684 
L 349.975674 264.232421 
L 353.707335 262.565053 
L 357.438997 269.234526 
L 361.170658 272.569263 
L 364.90232 270.901895 
L 368.633981 267.567158 
L 372.365643 274.236632 
L 376.097304 274.236632 
L 379.828966 269.234526 
L 383.560627 269.234526 
L 387.292288 270.901895 
L 391.02395 259.230316 
L 394.755611 257.562947 
L 398.487273 257.562947 
L 398.487273 257.562947 
L 398.487273 257.562947 
L 394.755611 257.562947 
L 391.02395 259.230316 
L 387.292288 270.901895 
L 383.560627 269.234526 
L 379.828966 269.234526 
L 376.097304 274.236632 
L 372.365643 274.236632 
L 368.633981 267.567158 
L 364.90232 270.901895 
L 361.170658 272.569263 
L 357.438997 269.234526 
L 353.707335 262.565053 
L 349.975674 264.232421 
L 346.244013 260.897684 
L 342.512351 255.895579 
L 338.78069 257.562947 
L 335.049028 264.232421 
L 331.317367 267.567158 
L 327.585705 269.234526 
L 323.854044 265.899789 
L 320.122382 260.897684 
L 316.390721 262.565053 
L 312.65906 254.228211 
L 308.927398 235.887158 
L 305.195737 184.198737 
L 301.464075 144.181895 
L 297.732414 162.522947 
L 294.000752 177.529263 
L 290.269091 155.853474 
L 286.537429 149.184 
L 282.805768 137.512421 
L 279.074107 150.851368 
L 275.342445 144.181895 
L 271.610784 135.845053 
L 267.879122 114.169263 
L 264.147461 100.830316 
L 260.415799 130.842947 
L 256.684138 122.506105 
L 252.952476 119.171368 
L 249.220815 99.162947 
L 245.489154 115.836632 
L 241.757492 110.834526 
L 238.025831 97.495579 
L 234.294169 100.830316 
L 230.562508 85.824 
L 226.830846 80.821895 
L 223.099185 69.150316 
L 219.367524 55.811368 
L 215.635862 57.478737 
L 211.904201 57.478737 
L 208.172539 57.478737 
L 204.440878 55.811368 
L 200.709216 57.478737 
L 196.977555 57.478737 
L 193.245893 57.478737 
L 189.514232 59.146105 
L 185.782571 57.478737 
L 182.050909 55.811368 
L 178.319248 55.811368 
L 174.587586 55.811368 
L 170.855925 55.811368 
L 167.124263 59.146105 
L 163.392602 59.146105 
L 159.66094 59.146105 
L 155.929279 59.146105 
L 152.197618 59.146105 
L 148.465956 57.478737 
L 144.734295 55.811368 
L 141.002633 57.478737 
L 137.270972 57.478737 
L 133.53931 57.478737 
L 129.807649 57.478737 
L 126.075987 57.478737 
L 122.344326 57.478737 
L 118.612665 57.478737 
L 114.881003 57.478737 
L 111.149342 57.478737 
L 107.41768 57.478737 
L 103.686019 57.478737 
L 99.954357 57.478737 
L 96.222696 57.478737 
L 92.491034 57.478737 
L 88.759373 57.478737 
L 85.027712 57.478737 
L 81.29605 57.478737 
L 77.564389 57.478737 
L 73.832727 57.478737 
z
" style="fill:#e377c2;"/>
   </g>
   <g id="PolyCollection_8">
    <path clip-path="url(#pd272e2e6b4)" d="M 73.832727 57.478737 
L 73.832727 57.478737 
L 77.564389 57.478737 
L 81.29605 57.478737 
L 85.027712 57.478737 
L 88.759373 57.478737 
L 92.491034 57.478737 
L 96.222696 57.478737 
L 99.954357 57.478737 
L 103.686019 57.478737 
L 107.41768 57.478737 
L 111.149342 57.478737 
L 114.881003 57.478737 
L 118.612665 57.478737 
L 122.344326 57.478737 
L 126.075987 57.478737 
L 129.807649 57.478737 
L 133.53931 57.478737 
L 137.270972 57.478737 
L 141.002633 57.478737 
L 144.734295 55.811368 
L 148.465956 57.478737 
L 152.197618 59.146105 
L 155.929279 59.146105 
L 159.66094 59.146105 
L 163.392602 59.146105 
L 167.124263 59.146105 
L 170.855925 55.811368 
L 174.587586 55.811368 
L 178.319248 55.811368 
L 182.050909 55.811368 
L 185.782571 57.478737 
L 189.514232 59.146105 
L 193.245893 57.478737 
L 196.977555 57.478737 
L 200.709216 57.478737 
L 204.440878 55.811368 
L 208.172539 57.478737 
L 211.904201 57.478737 
L 215.635862 57.478737 
L 219.367524 55.811368 
L 223.099185 69.150316 
L 226.830846 80.821895 
L 230.562508 85.824 
L 234.294169 100.830316 
L 238.025831 97.495579 
L 241.757492 110.834526 
L 245.489154 115.836632 
L 249.220815 99.162947 
L 252.952476 119.171368 
L 256.684138 122.506105 
L 260.415799 130.842947 
L 264.147461 100.830316 
L 267.879122 114.169263 
L 271.610784 135.845053 
L 275.342445 144.181895 
L 279.074107 150.851368 
L 282.805768 137.512421 
L 286.537429 149.184 
L 290.269091 155.853474 
L 294.000752 177.529263 
L 297.732414 162.522947 
L 301.464075 144.181895 
L 305.195737 184.198737 
L 308.927398 235.887158 
L 312.65906 254.228211 
L 316.390721 262.565053 
L 320.122382 260.897684 
L 323.854044 265.899789 
L 327.585705 269.234526 
L 331.317367 267.567158 
L 335.049028 264.232421 
L 338.78069 257.562947 
L 342.512351 255.895579 
L 346.244013 260.897684 
L 349.975674 264.232421 
L 353.707335 262.565053 
L 357.438997 269.234526 
L 361.170658 272.569263 
L 364.90232 270.901895 
L 368.633981 267.567158 
L 372.365643 274.236632 
L 376.097304 274.236632 
L 379.828966 269.234526 
L 383.560627 269.234526 
L 387.292288 270.901895 
L 391.02395 259.230316 
L 394.755611 257.562947 
L 398.487273 257.562947 
L 398.487273 257.562947 
L 398.487273 257.562947 
L 394.755611 257.562947 
L 391.02395 259.230316 
L 387.292288 270.901895 
L 383.560627 269.234526 
L 379.828966 269.234526 
L 376.097304 274.236632 
L 372.365643 274.236632 
L 368.633981 267.567158 
L 364.90232 270.901895 
L 361.170658 272.569263 
L 357.438997 269.234526 
L 353.707335 262.565053 
L 349.975674 264.232421 
L 346.244013 260.897684 
L 342.512351 255.895579 
L 338.78069 257.562947 
L 335.049028 264.232421 
L 331.317367 267.567158 
L 327.585705 269.234526 
L 323.854044 265.899789 
L 320.122382 252.560842 
L 316.390721 249.226105 
L 312.65906 232.552421 
L 308.927398 224.215579 
L 305.195737 162.522947 
L 301.464075 125.840842 
L 297.732414 114.169263 
L 294.000752 119.171368 
L 290.269091 94.160842 
L 286.537429 117.504 
L 282.805768 95.828211 
L 279.074107 99.162947 
L 275.342445 100.830316 
L 271.610784 92.493474 
L 267.879122 80.821895 
L 264.147461 82.489263 
L 260.415799 70.817684 
L 256.684138 65.815579 
L 252.952476 69.150316 
L 249.220815 72.485053 
L 245.489154 70.817684 
L 241.757492 75.819789 
L 238.025831 62.480842 
L 234.294169 55.811368 
L 230.562508 54.144 
L 226.830846 57.478737 
L 223.099185 59.146105 
L 219.367524 55.811368 
L 215.635862 57.478737 
L 211.904201 57.478737 
L 208.172539 57.478737 
L 204.440878 55.811368 
L 200.709216 57.478737 
L 196.977555 57.478737 
L 193.245893 57.478737 
L 189.514232 59.146105 
L 185.782571 57.478737 
L 182.050909 55.811368 
L 178.319248 55.811368 
L 174.587586 55.811368 
L 170.855925 55.811368 
L 167.124263 59.146105 
L 163.392602 59.146105 
L 159.66094 59.146105 
L 155.929279 59.146105 
L 152.197618 59.146105 
L 148.465956 57.478737 
L 144.734295 55.811368 
L 141.002633 57.478737 
L 137.270972 57.478737 
L 133.53931 57.478737 
L 129.807649 57.478737 
L 126.075987 57.478737 
L 122.344326 57.478737 
L 118.612665 57.478737 
L 114.881003 57.478737 
L 111.149342 57.478737 
L 107.41768 57.478737 
L 103.686019 57.478737 
L 99.954357 57.478737 
L 96.222696 57.478737 
L 92.491034 57.478737 
L 88.759373 57.478737 
L 85.027712 57.478737 
L 81.29605 57.478737 
L 77.564389 57.478737 
L 73.832727 57.478737 
z
" style="fill:#7f7f7f;"/>
   </g>
   <g id="PolyCollection_9">
    <path clip-path="url(#pd272e2e6b4)" d="M 73.832727 57.478737 
L 73.832727 57.478737 
L 77.564389 57.478737 
L 81.29605 57.478737 
L 85.027712 57.478737 
L 88.759373 57.478737 
L 92.491034 57.478737 
L 96.222696 57.478737 
L 99.954357 57.478737 
L 103.686019 57.478737 
L 107.41768 57.478737 
L 111.149342 57.478737 
L 114.881003 57.478737 
L 118.612665 57.478737 
L 122.344326 57.478737 
L 126.075987 57.478737 
L 129.807649 57.478737 
L 133.53931 57.478737 
L 137.270972 57.478737 
L 141.002633 57.478737 
L 144.734295 55.811368 
L 148.465956 57.478737 
L 152.197618 59.146105 
L 155.929279 59.146105 
L 159.66094 59.146105 
L 163.392602 59.146105 
L 167.124263 59.146105 
L 170.855925 55.811368 
L 174.587586 55.811368 
L 178.319248 55.811368 
L 182.050909 55.811368 
L 185.782571 57.478737 
L 189.514232 59.146105 
L 193.245893 57.478737 
L 196.977555 57.478737 
L 200.709216 57.478737 
L 204.440878 55.811368 
L 208.172539 57.478737 
L 211.904201 57.478737 
L 215.635862 57.478737 
L 219.367524 55.811368 
L 223.099185 59.146105 
L 226.830846 57.478737 
L 230.562508 54.144 
L 234.294169 55.811368 
L 238.025831 62.480842 
L 241.757492 75.819789 
L 245.489154 70.817684 
L 249.220815 72.485053 
L 252.952476 69.150316 
L 256.684138 65.815579 
L 260.415799 70.817684 
L 264.147461 82.489263 
L 267.879122 80.821895 
L 271.610784 92.493474 
L 275.342445 100.830316 
L 279.074107 99.162947 
L 282.805768 95.828211 
L 286.537429 117.504 
L 290.269091 94.160842 
L 294.000752 119.171368 
L 297.732414 114.169263 
L 301.464075 125.840842 
L 305.195737 162.522947 
L 308.927398 224.215579 
L 312.65906 232.552421 
L 316.390721 249.226105 
L 320.122382 252.560842 
L 323.854044 265.899789 
L 327.585705 269.234526 
L 331.317367 267.567158 
L 335.049028 264.232421 
L 338.78069 257.562947 
L 342.512351 255.895579 
L 346.244013 260.897684 
L 349.975674 264.232421 
L 353.707335 262.565053 
L 357.438997 269.234526 
L 361.170658 272.569263 
L 364.90232 270.901895 
L 368.633981 267.567158 
L 372.365643 274.236632 
L 376.097304 274.236632 
L 379.828966 269.234526 
L 383.560627 269.234526 
L 387.292288 270.901895 
L 391.02395 259.230316 
L 394.755611 257.562947 
L 398.487273 257.562947 
L 398.487273 257.562947 
L 398.487273 257.562947 
L 394.755611 257.562947 
L 391.02395 259.230316 
L 387.292288 270.901895 
L 383.560627 269.234526 
L 379.828966 269.234526 
L 376.097304 274.236632 
L 372.365643 274.236632 
L 368.633981 267.567158 
L 364.90232 270.901895 
L 361.170658 272.569263 
L 357.438997 269.234526 
L 353.707335 262.565053 
L 349.975674 264.232421 
L 346.244013 260.897684 
L 342.512351 255.895579 
L 338.78069 242.556632 
L 335.049028 252.560842 
L 331.317367 245.891368 
L 327.585705 259.230316 
L 323.854044 249.226105 
L 320.122382 229.217684 
L 316.390721 229.217684 
L 312.65906 209.209263 
L 308.927398 197.537684 
L 305.195737 135.845053 
L 301.464075 72.485053 
L 297.732414 77.487158 
L 294.000752 79.154526 
L 290.269091 59.146105 
L 286.537429 84.156632 
L 282.805768 77.487158 
L 279.074107 75.819789 
L 275.342445 77.487158 
L 271.610784 57.478737 
L 267.879122 55.811368 
L 264.147461 55.811368 
L 260.415799 55.811368 
L 256.684138 54.144 
L 252.952476 55.811368 
L 249.220815 55.811368 
L 245.489154 59.146105 
L 241.757492 59.146105 
L 238.025831 57.478737 
L 234.294169 55.811368 
L 230.562508 54.144 
L 226.830846 57.478737 
L 223.099185 59.146105 
L 219.367524 55.811368 
L 215.635862 57.478737 
L 211.904201 57.478737 
L 208.172539 57.478737 
L 204.440878 55.811368 
L 200.709216 57.478737 
L 196.977555 57.478737 
L 193.245893 57.478737 
L 189.514232 59.146105 
L 185.782571 57.478737 
L 182.050909 55.811368 
L 178.319248 55.811368 
L 174.587586 55.811368 
L 170.855925 55.811368 
L 167.124263 59.146105 
L 163.392602 59.146105 
L 159.66094 59.146105 
L 155.929279 59.146105 
L 152.197618 59.146105 
L 148.465956 57.478737 
L 144.734295 55.811368 
L 141.002633 57.478737 
L 137.270972 57.478737 
L 133.53931 57.478737 
L 129.807649 57.478737 
L 126.075987 57.478737 
L 122.344326 57.478737 
L 118.612665 57.478737 
L 114.881003 57.478737 
L 111.149342 57.478737 
L 107.41768 57.478737 
L 103.686019 57.478737 
L 99.954357 57.478737 
L 96.222696 57.478737 
L 92.491034 57.478737 
L 88.759373 57.478737 
L 85.027712 57.478737 
L 81.29605 57.478737 
L 77.564389 57.478737 
L 73.832727 57.478737 
z
" style="fill:#bcbd22;"/>
   </g>
   <g id="PolyCollection_10">
    <path clip-path="url(#pd272e2e6b4)" d="M 73.832727 57.478737 
L 73.832727 57.478737 
L 77.564389 57.478737 
L 81.29605 57.478737 
L 85.027712 57.478737 
L 88.759373 57.478737 
L 92.491034 57.478737 
L 96.222696 57.478737 
L 99.954357 57.478737 
L 103.686019 57.478737 
L 107.41768 57.478737 
L 111.149342 57.478737 
L 114.881003 57.478737 
L 118.612665 57.478737 
L 122.344326 57.478737 
L 126.075987 57.478737 
L 129.807649 57.478737 
L 133.53931 57.478737 
L 137.270972 57.478737 
L 141.002633 57.478737 
L 144.734295 55.811368 
L 148.465956 57.478737 
L 152.197618 59.146105 
L 155.929279 59.146105 
L 159.66094 59.146105 
L 163.392602 59.146105 
L 167.124263 59.146105 
L 170.855925 55.811368 
L 174.587586 55.811368 
L 178.319248 55.811368 
L 182.050909 55.811368 
L 185.782571 57.478737 
L 189.514232 59.146105 
L 193.245893 57.478737 
L 196.977555 57.478737 
L 200.709216 57.478737 
L 204.440878 55.811368 
L 208.172539 57.478737 
L 211.904201 57.478737 
L 215.635862 57.478737 
L 219.367524 55.811368 
L 223.099185 59.146105 
L 226.830846 57.478737 
L 230.562508 54.144 
L 234.294169 55.811368 
L 238.025831 57.478737 
L 241.757492 59.146105 
L 245.489154 59.146105 
L 249.220815 55.811368 
L 252.952476 55.811368 
L 256.684138 54.144 
L 260.415799 55.811368 
L 264.147461 55.811368 
L 267.879122 55.811368 
L 271.610784 57.478737 
L 275.342445 77.487158 
L 279.074107 75.819789 
L 282.805768 77.487158 
L 286.537429 84.156632 
L 290.269091 59.146105 
L 294.000752 79.154526 
L 297.732414 77.487158 
L 301.464075 72.485053 
L 305.195737 135.845053 
L 308.927398 197.537684 
L 312.65906 209.209263 
L 316.390721 229.217684 
L 320.122382 229.217684 
L 323.854044 249.226105 
L 327.585705 259.230316 
L 331.317367 245.891368 
L 335.049028 252.560842 
L 338.78069 242.556632 
L 342.512351 255.895579 
L 346.244013 260.897684 
L 349.975674 264.232421 
L 353.707335 262.565053 
L 357.438997 269.234526 
L 361.170658 272.569263 
L 364.90232 270.901895 
L 368.633981 267.567158 
L 372.365643 274.236632 
L 376.097304 274.236632 
L 379.828966 269.234526 
L 383.560627 269.234526 
L 387.292288 270.901895 
L 391.02395 259.230316 
L 394.755611 257.562947 
L 398.487273 257.562947 
L 398.487273 225.882947 
L 398.487273 225.882947 
L 394.755611 234.219789 
L 391.02395 229.217684 
L 387.292288 239.221895 
L 383.560627 245.891368 
L 379.828966 250.893474 
L 376.097304 250.893474 
L 372.365643 242.556632 
L 368.633981 235.887158 
L 364.90232 249.226105 
L 361.170658 244.224 
L 357.438997 237.554526 
L 353.707335 230.885053 
L 349.975674 227.550316 
L 346.244013 234.219789 
L 342.512351 225.882947 
L 338.78069 232.552421 
L 335.049028 210.876632 
L 331.317367 204.207158 
L 327.585705 207.541895 
L 323.854044 209.209263 
L 320.122382 185.866105 
L 316.390721 190.868211 
L 312.65906 182.531368 
L 308.927398 172.527158 
L 305.195737 97.495579 
L 301.464075 54.144 
L 297.732414 54.144 
L 294.000752 55.811368 
L 290.269091 55.811368 
L 286.537429 57.478737 
L 282.805768 57.478737 
L 279.074107 57.478737 
L 275.342445 57.478737 
L 271.610784 54.144 
L 267.879122 55.811368 
L 264.147461 55.811368 
L 260.415799 55.811368 
L 256.684138 54.144 
L 252.952476 55.811368 
L 249.220815 55.811368 
L 245.489154 59.146105 
L 241.757492 59.146105 
L 238.025831 57.478737 
L 234.294169 55.811368 
L 230.562508 54.144 
L 226.830846 57.478737 
L 223.099185 59.146105 
L 219.367524 55.811368 
L 215.635862 57.478737 
L 211.904201 57.478737 
L 208.172539 57.478737 
L 204.440878 55.811368 
L 200.709216 57.478737 
L 196.977555 57.478737 
L 193.245893 57.478737 
L 189.514232 59.146105 
L 185.782571 57.478737 
L 182.050909 55.811368 
L 178.319248 55.811368 
L 174.587586 55.811368 
L 170.855925 55.811368 
L 167.124263 59.146105 
L 163.392602 59.146105 
L 159.66094 59.146105 
L 155.929279 59.146105 
L 152.197618 59.146105 
L 148.465956 57.478737 
L 144.734295 55.811368 
L 141.002633 57.478737 
L 137.270972 57.478737 
L 133.53931 57.478737 
L 129.807649 57.478737 
L 126.075987 57.478737 
L 122.344326 57.478737 
L 118.612665 57.478737 
L 114.881003 57.478737 
L 111.149342 57.478737 
L 107.41768 57.478737 
L 103.686019 57.478737 
L 99.954357 57.478737 
L 96.222696 57.478737 
L 92.491034 57.478737 
L 88.759373 57.478737 
L 85.027712 57.478737 
L 81.29605 57.478737 
L 77.564389 57.478737 
L 73.832727 57.478737 
z
" style="fill:#17becf;"/>
   </g>
   <g id="PolyCollection_11">
    <path clip-path="url(#pd272e2e6b4)" d="M 73.832727 57.478737 
L 73.832727 57.478737 
L 77.564389 57.478737 
L 81.29605 57.478737 
L 85.027712 57.478737 
L 88.759373 57.478737 
L 92.491034 57.478737 
L 96.222696 57.478737 
L 99.954357 57.478737 
L 103.686019 57.478737 
L 107.41768 57.478737 
L 111.149342 57.478737 
L 114.881003 57.478737 
L 118.612665 57.478737 
L 122.344326 57.478737 
L 126.075987 57.478737 
L 129.807649 57.478737 
L 133.53931 57.478737 
L 137.270972 57.478737 
L 141.002633 57.478737 
L 144.734295 55.811368 
L 148.465956 57.478737 
L 152.197618 59.146105 
L 155.929279 59.146105 
L 159.66094 59.146105 
L 163.392602 59.146105 
L 167.124263 59.146105 
L 170.855925 55.811368 
L 174.587586 55.811368 
L 178.319248 55.811368 
L 182.050909 55.811368 
L 185.782571 57.478737 
L 189.514232 59.146105 
L 193.245893 57.478737 
L 196.977555 57.478737 
L 200.709216 57.478737 
L 204.440878 55.811368 
L 208.172539 57.478737 
L 211.904201 57.478737 
L 215.635862 57.478737 
L 219.367524 55.811368 
L 223.099185 59.146105 
L 226.830846 57.478737 
L 230.562508 54.144 
L 234.294169 55.811368 
L 238.025831 57.478737 
L 241.757492 59.146105 
L 245.489154 59.146105 
L 249.220815 55.811368 
L 252.952476 55.811368 
L 256.684138 54.144 
L 260.415799 55.811368 
L 264.147461 55.811368 
L 267.879122 55.811368 
L 271.610784 54.144 
L 275.342445 57.478737 
L 279.074107 57.478737 
L 282.805768 57.478737 
L 286.537429 57.478737 
L 290.269091 55.811368 
L 294.000752 55.811368 
L 297.732414 54.144 
L 301.464075 54.144 
L 305.195737 97.495579 
L 308.927398 172.527158 
L 312.65906 182.531368 
L 316.390721 190.868211 
L 320.122382 185.866105 
L 323.854044 209.209263 
L 327.585705 207.541895 
L 331.317367 204.207158 
L 335.049028 210.876632 
L 338.78069 232.552421 
L 342.512351 225.882947 
L 346.244013 234.219789 
L 349.975674 227.550316 
L 353.707335 230.885053 
L 357.438997 237.554526 
L 361.170658 244.224 
L 364.90232 249.226105 
L 368.633981 235.887158 
L 372.365643 242.556632 
L 376.097304 250.893474 
L 379.828966 250.893474 
L 383.560627 245.891368 
L 387.292288 239.221895 
L 391.02395 229.217684 
L 394.755611 234.219789 
L 398.487273 225.882947 
L 398.487273 200.872421 
L 398.487273 200.872421 
L 394.755611 202.539789 
L 391.02395 190.868211 
L 387.292288 170.859789 
L 383.560627 174.194526 
L 379.828966 182.531368 
L 376.097304 184.198737 
L 372.365643 179.196632 
L 368.633981 160.855579 
L 364.90232 170.859789 
L 361.170658 160.855579 
L 357.438997 147.516632 
L 353.707335 159.188211 
L 349.975674 160.855579 
L 346.244013 184.198737 
L 342.512351 185.866105 
L 338.78069 177.529263 
L 335.049028 139.179789 
L 331.317367 144.181895 
L 327.585705 147.516632 
L 323.854044 147.516632 
L 320.122382 139.179789 
L 316.390721 132.510316 
L 312.65906 140.847158 
L 308.927398 154.186105 
L 305.195737 90.826105 
L 301.464075 54.144 
L 297.732414 54.144 
L 294.000752 55.811368 
L 290.269091 55.811368 
L 286.537429 57.478737 
L 282.805768 57.478737 
L 279.074107 57.478737 
L 275.342445 57.478737 
L 271.610784 54.144 
L 267.879122 55.811368 
L 264.147461 55.811368 
L 260.415799 55.811368 
L 256.684138 54.144 
L 252.952476 55.811368 
L 249.220815 55.811368 
L 245.489154 59.146105 
L 241.757492 59.146105 
L 238.025831 57.478737 
L 234.294169 55.811368 
L 230.562508 54.144 
L 226.830846 57.478737 
L 223.099185 59.146105 
L 219.367524 55.811368 
L 215.635862 57.478737 
L 211.904201 57.478737 
L 208.172539 57.478737 
L 204.440878 55.811368 
L 200.709216 57.478737 
L 196.977555 57.478737 
L 193.245893 57.478737 
L 189.514232 59.146105 
L 185.782571 57.478737 
L 182.050909 55.811368 
L 178.319248 55.811368 
L 174.587586 55.811368 
L 170.855925 55.811368 
L 167.124263 59.146105 
L 163.392602 59.146105 
L 159.66094 59.146105 
L 155.929279 59.146105 
L 152.197618 59.146105 
L 148.465956 57.478737 
L 144.734295 55.811368 
L 141.002633 57.478737 
L 137.270972 57.478737 
L 133.53931 57.478737 
L 129.807649 57.478737 
L 126.075987 57.478737 
L 122.344326 57.478737 
L 118.612665 57.478737 
L 114.881003 57.478737 
L 111.149342 57.478737 
L 107.41768 57.478737 
L 103.686019 57.478737 
L 99.954357 57.478737 
L 96.222696 57.478737 
L 92.491034 57.478737 
L 88.759373 57.478737 
L 85.027712 57.478737 
L 81.29605 57.478737 
L 77.564389 57.478737 
L 73.832727 57.478737 
z
" style="fill:#1f77b4;"/>
   </g>
   <g id="PolyCollection_12">
    <path clip-path="url(#pd272e2e6b4)" d="M 73.832727 57.478737 
L 73.832727 57.478737 
L 77.564389 57.478737 
L 81.29605 57.478737 
L 85.027712 57.478737 
L 88.759373 57.478737 
L 92.491034 57.478737 
L 96.222696 57.478737 
L 99.954357 57.478737 
L 103.686019 57.478737 
L 107.41768 57.478737 
L 111.149342 57.478737 
L 114.881003 57.478737 
L 118.612665 57.478737 
L 122.344326 57.478737 
L 126.075987 57.478737 
L 129.807649 57.478737 
L 133.53931 57.478737 
L 137.270972 57.478737 
L 141.002633 57.478737 
L 144.734295 55.811368 
L 148.465956 57.478737 
L 152.197618 59.146105 
L 155.929279 59.146105 
L 159.66094 59.146105 
L 163.392602 59.146105 
L 167.124263 59.146105 
L 170.855925 55.811368 
L 174.587586 55.811368 
L 178.319248 55.811368 
L 182.050909 55.811368 
L 185.782571 57.478737 
L 189.514232 59.146105 
L 193.245893 57.478737 
L 196.977555 57.478737 
L 200.709216 57.478737 
L 204.440878 55.811368 
L 208.172539 57.478737 
L 211.904201 57.478737 
L 215.635862 57.478737 
L 219.367524 55.811368 
L 223.099185 59.146105 
L 226.830846 57.478737 
L 230.562508 54.144 
L 234.294169 55.811368 
L 238.025831 57.478737 
L 241.757492 59.146105 
L 245.489154 59.146105 
L 249.220815 55.811368 
L 252.952476 55.811368 
L 256.684138 54.144 
L 260.415799 55.811368 
L 264.147461 55.811368 
L 267.879122 55.811368 
L 271.610784 54.144 
L 275.342445 57.478737 
L 279.074107 57.478737 
L 282.805768 57.478737 
L 286.537429 57.478737 
L 290.269091 55.811368 
L 294.000752 55.811368 
L 297.732414 54.144 
L 301.464075 54.144 
L 305.195737 90.826105 
L 308.927398 154.186105 
L 312.65906 140.847158 
L 316.390721 132.510316 
L 320.122382 139.179789 
L 323.854044 147.516632 
L 327.585705 147.516632 
L 331.317367 144.181895 
L 335.049028 139.179789 
L 338.78069 177.529263 
L 342.512351 185.866105 
L 346.244013 184.198737 
L 349.975674 160.855579 
L 353.707335 159.188211 
L 357.438997 147.516632 
L 361.170658 160.855579 
L 364.90232 170.859789 
L 368.633981 160.855579 
L 372.365643 179.196632 
L 376.097304 184.198737 
L 379.828966 182.531368 
L 383.560627 174.194526 
L 387.292288 170.859789 
L 391.02395 190.868211 
L 394.755611 202.539789 
L 398.487273 200.872421 
L 398.487273 177.529263 
L 398.487273 177.529263 
L 394.755611 170.859789 
L 391.02395 157.520842 
L 387.292288 144.181895 
L 383.560627 147.516632 
L 379.828966 155.853474 
L 376.097304 155.853474 
L 372.365643 154.186105 
L 368.633981 142.514526 
L 364.90232 144.181895 
L 361.170658 139.179789 
L 357.438997 127.508211 
L 353.707335 139.179789 
L 349.975674 152.518737 
L 346.244013 170.859789 
L 342.512351 140.847158 
L 338.78069 144.181895 
L 335.049028 122.506105 
L 331.317367 125.840842 
L 327.585705 127.508211 
L 323.854044 127.508211 
L 320.122382 115.836632 
L 316.390721 117.504 
L 312.65906 122.506105 
L 308.927398 97.495579 
L 305.195737 85.824 
L 301.464075 54.144 
L 297.732414 54.144 
L 294.000752 55.811368 
L 290.269091 55.811368 
L 286.537429 57.478737 
L 282.805768 57.478737 
L 279.074107 57.478737 
L 275.342445 57.478737 
L 271.610784 54.144 
L 267.879122 55.811368 
L 264.147461 55.811368 
L 260.415799 55.811368 
L 256.684138 54.144 
L 252.952476 55.811368 
L 249.220815 55.811368 
L 245.489154 59.146105 
L 241.757492 59.146105 
L 238.025831 57.478737 
L 234.294169 55.811368 
L 230.562508 54.144 
L 226.830846 57.478737 
L 223.099185 59.146105 
L 219.367524 55.811368 
L 215.635862 57.478737 
L 211.904201 57.478737 
L 208.172539 57.478737 
L 204.440878 55.811368 
L 200.709216 57.478737 
L 196.977555 57.478737 
L 193.245893 57.478737 
L 189.514232 59.146105 
L 185.782571 57.478737 
L 182.050909 55.811368 
L 178.319248 55.811368 
L 174.587586 55.811368 
L 170.855925 55.811368 
L 167.124263 59.146105 
L 163.392602 59.146105 
L 159.66094 59.146105 
L 155.929279 59.146105 
L 152.197618 59.146105 
L 148.465956 57.478737 
L 144.734295 55.811368 
L 141.002633 57.478737 
L 137.270972 57.478737 
L 133.53931 57.478737 
L 129.807649 57.478737 
L 126.075987 57.478737 
L 122.344326 57.478737 
L 118.612665 57.478737 
L 114.881003 57.478737 
L 111.149342 57.478737 
L 107.41768 57.478737 
L 103.686019 57.478737 
L 99.954357 57.478737 
L 96.222696 57.478737 
L 92.491034 57.478737 
L 88.759373 57.478737 
L 85.027712 57.478737 
L 81.29605 57.478737 
L 77.564389 57.478737 
L 73.832727 57.478737 
z
" style="fill:#ff7f0e;"/>
   </g>
   <g id="PolyCollection_13">
    <path clip-path="url(#pd272e2e6b4)" d="M 73.832727 57.478737 
L 73.832727 57.478737 
L 77.564389 57.478737 
L 81.29605 57.478737 
L 85.027712 57.478737 
L 88.759373 57.478737 
L 92.491034 57.478737 
L 96.222696 57.478737 
L 99.954357 57.478737 
L 103.686019 57.478737 
L 107.41768 57.478737 
L 111.149342 57.478737 
L 114.881003 57.478737 
L 118.612665 57.478737 
L 122.344326 57.478737 
L 126.075987 57.478737 
L 129.807649 57.478737 
L 133.53931 57.478737 
L 137.270972 57.478737 
L 141.002633 57.478737 
L 144.734295 55.811368 
L 148.465956 57.478737 
L 152.197618 59.146105 
L 155.929279 59.146105 
L 159.66094 59.146105 
L 163.392602 59.146105 
L 167.124263 59.146105 
L 170.855925 55.811368 
L 174.587586 55.811368 
L 178.319248 55.811368 
L 182.050909 55.811368 
L 185.782571 57.478737 
L 189.514232 59.146105 
L 193.245893 57.478737 
L 196.977555 57.478737 
L 200.709216 57.478737 
L 204.440878 55.811368 
L 208.172539 57.478737 
L 211.904201 57.478737 
L 215.635862 57.478737 
L 219.367524 55.811368 
L 223.099185 59.146105 
L 226.830846 57.478737 
L 230.562508 54.144 
L 234.294169 55.811368 
L 238.025831 57.478737 
L 241.757492 59.146105 
L 245.489154 59.146105 
L 249.220815 55.811368 
L 252.952476 55.811368 
L 256.684138 54.144 
L 260.415799 55.811368 
L 264.147461 55.811368 
L 267.879122 55.811368 
L 271.610784 54.144 
L 275.342445 57.478737 
L 279.074107 57.478737 
L 282.805768 57.478737 
L 286.537429 57.478737 
L 290.269091 55.811368 
L 294.000752 55.811368 
L 297.732414 54.144 
L 301.464075 54.144 
L 305.195737 85.824 
L 308.927398 97.495579 
L 312.65906 122.506105 
L 316.390721 117.504 
L 320.122382 115.836632 
L 323.854044 127.508211 
L 327.585705 127.508211 
L 331.317367 125.840842 
L 335.049028 122.506105 
L 338.78069 144.181895 
L 342.512351 140.847158 
L 346.244013 170.859789 
L 349.975674 152.518737 
L 353.707335 139.179789 
L 357.438997 127.508211 
L 361.170658 139.179789 
L 364.90232 144.181895 
L 368.633981 142.514526 
L 372.365643 154.186105 
L 376.097304 155.853474 
L 379.828966 155.853474 
L 383.560627 147.516632 
L 387.292288 144.181895 
L 391.02395 157.520842 
L 394.755611 170.859789 
L 398.487273 177.529263 
L 398.487273 134.177684 
L 398.487273 134.177684 
L 394.755611 125.840842 
L 391.02395 114.169263 
L 387.292288 110.834526 
L 383.560627 114.169263 
L 379.828966 117.504 
L 376.097304 117.504 
L 372.365643 115.836632 
L 368.633981 115.836632 
L 364.90232 115.836632 
L 361.170658 112.501895 
L 357.438997 104.165053 
L 353.707335 109.167158 
L 349.975674 115.836632 
L 346.244013 129.175579 
L 342.512351 100.830316 
L 338.78069 90.826105 
L 335.049028 89.158737 
L 331.317367 87.491368 
L 327.585705 95.828211 
L 323.854044 92.493474 
L 320.122382 82.489263 
L 316.390721 82.489263 
L 312.65906 87.491368 
L 308.927398 57.478737 
L 305.195737 54.144 
L 301.464075 54.144 
L 297.732414 54.144 
L 294.000752 55.811368 
L 290.269091 55.811368 
L 286.537429 57.478737 
L 282.805768 57.478737 
L 279.074107 57.478737 
L 275.342445 57.478737 
L 271.610784 54.144 
L 267.879122 55.811368 
L 264.147461 55.811368 
L 260.415799 55.811368 
L 256.684138 54.144 
L 252.952476 55.811368 
L 249.220815 55.811368 
L 245.489154 59.146105 
L 241.757492 59.146105 
L 238.025831 57.478737 
L 234.294169 55.811368 
L 230.562508 54.144 
L 226.830846 57.478737 
L 223.099185 59.146105 
L 219.367524 55.811368 
L 215.635862 57.478737 
L 211.904201 57.478737 
L 208.172539 57.478737 
L 204.440878 55.811368 
L 200.709216 57.478737 
L 196.977555 57.478737 
L 193.245893 57.478737 
L 189.514232 59.146105 
L 185.782571 57.478737 
L 182.050909 55.811368 
L 178.319248 55.811368 
L 174.587586 55.811368 
L 170.855925 55.811368 
L 167.124263 59.146105 
L 163.392602 59.146105 
L 159.66094 59.146105 
L 155.929279 59.146105 
L 152.197618 59.146105 
L 148.465956 57.478737 
L 144.734295 55.811368 
L 141.002633 57.478737 
L 137.270972 57.478737 
L 133.53931 57.478737 
L 129.807649 57.478737 
L 126.075987 57.478737 
L 122.344326 57.478737 
L 118.612665 57.478737 
L 114.881003 57.478737 
L 111.149342 57.478737 
L 107.41768 57.478737 
L 103.686019 57.478737 
L 99.954357 57.478737 
L 96.222696 57.478737 
L 92.491034 57.478737 
L 88.759373 57.478737 
L 85.027712 57.478737 
L 81.29605 57.478737 
L 77.564389 57.478737 
L 73.832727 57.478737 
z
" style="fill:#2ca02c;"/>
   </g>
   <g id="PolyCollection_14">
    <path clip-path="url(#pd272e2e6b4)" d="M 73.832727 57.478737 
L 73.832727 57.478737 
L 77.564389 57.478737 
L 81.29605 57.478737 
L 85.027712 57.478737 
L 88.759373 57.478737 
L 92.491034 57.478737 
L 96.222696 57.478737 
L 99.954357 57.478737 
L 103.686019 57.478737 
L 107.41768 57.478737 
L 111.149342 57.478737 
L 114.881003 57.478737 
L 118.612665 57.478737 
L 122.344326 57.478737 
L 126.075987 57.478737 
L 129.807649 57.478737 
L 133.53931 57.478737 
L 137.270972 57.478737 
L 141.002633 57.478737 
L 144.734295 55.811368 
L 148.465956 57.478737 
L 152.197618 59.146105 
L 155.929279 59.146105 
L 159.66094 59.146105 
L 163.392602 59.146105 
L 167.124263 59.146105 
L 170.855925 55.811368 
L 174.587586 55.811368 
L 178.319248 55.811368 
L 182.050909 55.811368 
L 185.782571 57.478737 
L 189.514232 59.146105 
L 193.245893 57.478737 
L 196.977555 57.478737 
L 200.709216 57.478737 
L 204.440878 55.811368 
L 208.172539 57.478737 
L 211.904201 57.478737 
L 215.635862 57.478737 
L 219.367524 55.811368 
L 223.099185 59.146105 
L 226.830846 57.478737 
L 230.562508 54.144 
L 234.294169 55.811368 
L 238.025831 57.478737 
L 241.757492 59.146105 
L 245.489154 59.146105 
L 249.220815 55.811368 
L 252.952476 55.811368 
L 256.684138 54.144 
L 260.415799 55.811368 
L 264.147461 55.811368 
L 267.879122 55.811368 
L 271.610784 54.144 
L 275.342445 57.478737 
L 279.074107 57.478737 
L 282.805768 57.478737 
L 286.537429 57.478737 
L 290.269091 55.811368 
L 294.000752 55.811368 
L 297.732414 54.144 
L 301.464075 54.144 
L 305.195737 54.144 
L 308.927398 57.478737 
L 312.65906 87.491368 
L 316.390721 82.489263 
L 320.122382 82.489263 
L 323.854044 92.493474 
L 327.585705 95.828211 
L 331.317367 87.491368 
L 335.049028 89.158737 
L 338.78069 90.826105 
L 342.512351 100.830316 
L 346.244013 129.175579 
L 349.975674 115.836632 
L 353.707335 109.167158 
L 357.438997 104.165053 
L 361.170658 112.501895 
L 364.90232 115.836632 
L 368.633981 115.836632 
L 372.365643 115.836632 
L 376.097304 117.504 
L 379.828966 117.504 
L 383.560627 114.169263 
L 387.292288 110.834526 
L 391.02395 114.169263 
L 394.755611 125.840842 
L 398.487273 134.177684 
L 398.487273 134.177684 
L 398.487273 134.177684 
L 394.755611 125.840842 
L 391.02395 114.169263 
L 387.292288 84.156632 
L 383.560627 79.154526 
L 379.828966 80.821895 
L 376.097304 82.489263 
L 372.365643 84.156632 
L 368.633981 80.821895 
L 364.90232 82.489263 
L 361.170658 82.489263 
L 357.438997 79.154526 
L 353.707335 79.154526 
L 349.975674 80.821895 
L 346.244013 99.162947 
L 342.512351 64.148211 
L 338.78069 60.813474 
L 335.049028 59.146105 
L 331.317367 59.146105 
L 327.585705 60.813474 
L 323.854044 60.813474 
L 320.122382 55.811368 
L 316.390721 55.811368 
L 312.65906 55.811368 
L 308.927398 57.478737 
L 305.195737 54.144 
L 301.464075 54.144 
L 297.732414 54.144 
L 294.000752 55.811368 
L 290.269091 55.811368 
L 286.537429 57.478737 
L 282.805768 57.478737 
L 279.074107 57.478737 
L 275.342445 57.478737 
L 271.610784 54.144 
L 267.879122 55.811368 
L 264.147461 55.811368 
L 260.415799 55.811368 
L 256.684138 54.144 
L 252.952476 55.811368 
L 249.220815 55.811368 
L 245.489154 59.146105 
L 241.757492 59.146105 
L 238.025831 57.478737 
L 234.294169 55.811368 
L 230.562508 54.144 
L 226.830846 57.478737 
L 223.099185 59.146105 
L 219.367524 55.811368 
L 215.635862 57.478737 
L 211.904201 57.478737 
L 208.172539 57.478737 
L 204.440878 55.811368 
L 200.709216 57.478737 
L 196.977555 57.478737 
L 193.245893 57.478737 
L 189.514232 59.146105 
L 185.782571 57.478737 
L 182.050909 55.811368 
L 178.319248 55.811368 
L 174.587586 55.811368 
L 170.855925 55.811368 
L 167.124263 59.146105 
L 163.392602 59.146105 
L 159.66094 59.146105 
L 155.929279 59.146105 
L 152.197618 59.146105 
L 148.465956 57.478737 
L 144.734295 55.811368 
L 141.002633 57.478737 
L 137.270972 57.478737 
L 133.53931 57.478737 
L 129.807649 57.478737 
L 126.075987 57.478737 
L 122.344326 57.478737 
L 118.612665 57.478737 
L 114.881003 57.478737 
L 111.149342 57.478737 
L 107.41768 57.478737 
L 103.686019 57.478737 
L 99.954357 57.478737 
L 96.222696 57.478737 
L 92.491034 57.478737 
L 88.759373 57.478737 
L 85.027712 57.478737 
L 81.29605 57.478737 
L 77.564389 57.478737 
L 73.832727 57.478737 
z
" style="fill:#d62728;"/>
   </g>
   <g id="PolyCollection_15">
    <path clip-path="url(#pd272e2e6b4)" d="M 73.832727 57.478737 
L 73.832727 57.478737 
L 77.564389 57.478737 
L 81.29605 57.478737 
L 85.027712 57.478737 
L 88.759373 57.478737 
L 92.491034 57.478737 
L 96.222696 57.478737 
L 99.954357 57.478737 
L 103.686019 57.478737 
L 107.41768 57.478737 
L 111.149342 57.478737 
L 114.881003 57.478737 
L 118.612665 57.478737 
L 122.344326 57.478737 
L 126.075987 57.478737 
L 129.807649 57.478737 
L 133.53931 57.478737 
L 137.270972 57.478737 
L 141.002633 57.478737 
L 144.734295 55.811368 
L 148.465956 57.478737 
L 152.197618 59.146105 
L 155.929279 59.146105 
L 159.66094 59.146105 
L 163.392602 59.146105 
L 167.124263 59.146105 
L 170.855925 55.811368 
L 174.587586 55.811368 
L 178.319248 55.811368 
L 182.050909 55.811368 
L 185.782571 57.478737 
L 189.514232 59.146105 
L 193.245893 57.478737 
L 196.977555 57.478737 
L 200.709216 57.478737 
L 204.440878 55.811368 
L 208.172539 57.478737 
L 211.904201 57.478737 
L 215.635862 57.478737 
L 219.367524 55.811368 
L 223.099185 59.146105 
L 226.830846 57.478737 
L 230.562508 54.144 
L 234.294169 55.811368 
L 238.025831 57.478737 
L 241.757492 59.146105 
L 245.489154 59.146105 
L 249.220815 55.811368 
L 252.952476 55.811368 
L 256.684138 54.144 
L 260.415799 55.811368 
L 264.147461 55.811368 
L 267.879122 55.811368 
L 271.610784 54.144 
L 275.342445 57.478737 
L 279.074107 57.478737 
L 282.805768 57.478737 
L 286.537429 57.478737 
L 290.269091 55.811368 
L 294.000752 55.811368 
L 297.732414 54.144 
L 301.464075 54.144 
L 305.195737 54.144 
L 308.927398 57.478737 
L 312.65906 55.811368 
L 316.390721 55.811368 
L 320.122382 55.811368 
L 323.854044 60.813474 
L 327.585705 60.813474 
L 331.317367 59.146105 
L 335.049028 59.146105 
L 338.78069 60.813474 
L 342.512351 64.148211 
L 346.244013 99.162947 
L 349.975674 80.821895 
L 353.707335 79.154526 
L 357.438997 79.154526 
L 361.170658 82.489263 
L 364.90232 82.489263 
L 368.633981 80.821895 
L 372.365643 84.156632 
L 376.097304 82.489263 
L 379.828966 80.821895 
L 383.560627 79.154526 
L 387.292288 84.156632 
L 391.02395 114.169263 
L 394.755611 125.840842 
L 398.487273 134.177684 
L 398.487273 104.165053 
L 398.487273 104.165053 
L 394.755611 54.144 
L 391.02395 57.478737 
L 387.292288 60.813474 
L 383.560627 57.478737 
L 379.828966 55.811368 
L 376.097304 55.811368 
L 372.365643 55.811368 
L 368.633981 54.144 
L 364.90232 55.811368 
L 361.170658 57.478737 
L 357.438997 57.478737 
L 353.707335 57.478737 
L 349.975674 59.146105 
L 346.244013 59.146105 
L 342.512351 57.478737 
L 338.78069 60.813474 
L 335.049028 59.146105 
L 331.317367 59.146105 
L 327.585705 60.813474 
L 323.854044 60.813474 
L 320.122382 55.811368 
L 316.390721 55.811368 
L 312.65906 55.811368 
L 308.927398 57.478737 
L 305.195737 54.144 
L 301.464075 54.144 
L 297.732414 54.144 
L 294.000752 55.811368 
L 290.269091 55.811368 
L 286.537429 57.478737 
L 282.805768 57.478737 
L 279.074107 57.478737 
L 275.342445 57.478737 
L 271.610784 54.144 
L 267.879122 55.811368 
L 264.147461 55.811368 
L 260.415799 55.811368 
L 256.684138 54.144 
L 252.952476 55.811368 
L 249.220815 55.811368 
L 245.489154 59.146105 
L 241.757492 59.146105 
L 238.025831 57.478737 
L 234.294169 55.811368 
L 230.562508 54.144 
L 226.830846 57.478737 
L 223.099185 59.146105 
L 219.367524 55.811368 
L 215.635862 57.478737 
L 211.904201 57.478737 
L 208.172539 57.478737 
L 204.440878 55.811368 
L 200.709216 57.478737 
L 196.977555 57.478737 
L 193.245893 57.478737 
L 189.514232 59.146105 
L 185.782571 57.478737 
L 182.050909 55.811368 
L 178.319248 55.811368 
L 174.587586 55.811368 
L 170.855925 55.811368 
L 167.124263 59.146105 
L 163.392602 59.146105 
L 159.66094 59.146105 
L 155.929279 59.146105 
L 152.197618 59.146105 
L 148.465956 57.478737 
L 144.734295 55.811368 
L 141.002633 57.478737 
L 137.270972 57.478737 
L 133.53931 57.478737 
L 129.807649 57.478737 
L 126.075987 57.478737 
L 122.344326 57.478737 
L 118.612665 57.478737 
L 114.881003 57.478737 
L 111.149342 57.478737 
L 107.41768 57.478737 
L 103.686019 57.478737 
L 99.954357 57.478737 
L 96.222696 57.478737 
L 92.491034 57.478737 
L 88.759373 57.478737 
L 85.027712 57.478737 
L 81.29605 57.478737 
L 77.564389 57.478737 
L 73.832727 57.478737 
z
" style="fill:#9467bd;"/>
   </g>
   <g id="PolyCollection_16">
    <path clip-path="url(#pd272e2e6b4)" d="M 73.832727 57.478737 
L 73.832727 57.478737 
L 77.564389 57.478737 
L 81.29605 57.478737 
L 85.027712 57.478737 
L 88.759373 57.478737 
L 92.491034 57.478737 
L 96.222696 57.478737 
L 99.954357 57.478737 
L 103.686019 57.478737 
L 107.41768 57.478737 
L 111.149342 57.478737 
L 114.881003 57.478737 
L 118.612665 57.478737 
L 122.344326 57.478737 
L 126.075987 57.478737 
L 129.807649 57.478737 
L 133.53931 57.478737 
L 137.270972 57.478737 
L 141.002633 57.478737 
L 144.734295 55.811368 
L 148.465956 57.478737 
L 152.197618 59.146105 
L 155.929279 59.146105 
L 159.66094 59.146105 
L 163.392602 59.146105 
L 167.124263 59.146105 
L 170.855925 55.811368 
L 174.587586 55.811368 
L 178.319248 55.811368 
L 182.050909 55.811368 
L 185.782571 57.478737 
L 189.514232 59.146105 
L 193.245893 57.478737 
L 196.977555 57.478737 
L 200.709216 57.478737 
L 204.440878 55.811368 
L 208.172539 57.478737 
L 211.904201 57.478737 
L 215.635862 57.478737 
L 219.367524 55.811368 
L 223.099185 59.146105 
L 226.830846 57.478737 
L 230.562508 54.144 
L 234.294169 55.811368 
L 238.025831 57.478737 
L 241.757492 59.146105 
L 245.489154 59.146105 
L 249.220815 55.811368 
L 252.952476 55.811368 
L 256.684138 54.144 
L 260.415799 55.811368 
L 264.147461 55.811368 
L 267.879122 55.811368 
L 271.610784 54.144 
L 275.342445 57.478737 
L 279.074107 57.478737 
L 282.805768 57.478737 
L 286.537429 57.478737 
L 290.269091 55.811368 
L 294.000752 55.811368 
L 297.732414 54.144 
L 301.464075 54.144 
L 305.195737 54.144 
L 308.927398 57.478737 
L 312.65906 55.811368 
L 316.390721 55.811368 
L 320.122382 55.811368 
L 323.854044 60.813474 
L 327.585705 60.813474 
L 331.317367 59.146105 
L 335.049028 59.146105 
L 338.78069 60.813474 
L 342.512351 57.478737 
L 346.244013 59.146105 
L 349.975674 59.146105 
L 353.707335 57.478737 
L 357.438997 57.478737 
L 361.170658 57.478737 
L 364.90232 55.811368 
L 368.633981 54.144 
L 372.365643 55.811368 
L 376.097304 55.811368 
L 379.828966 55.811368 
L 383.560627 57.478737 
L 387.292288 60.813474 
L 391.02395 57.478737 
L 394.755611 54.144 
L 398.487273 104.165053 
L 398.487273 55.811368 
L 398.487273 55.811368 
L 394.755611 54.144 
L 391.02395 57.478737 
L 387.292288 60.813474 
L 383.560627 57.478737 
L 379.828966 55.811368 
L 376.097304 55.811368 
L 372.365643 55.811368 
L 368.633981 54.144 
L 364.90232 55.811368 
L 361.170658 57.478737 
L 357.438997 57.478737 
L 353.707335 57.478737 
L 349.975674 59.146105 
L 346.244013 59.146105 
L 342.512351 57.478737 
L 338.78069 60.813474 
L 335.049028 59.146105 
L 331.317367 59.146105 
L 327.585705 60.813474 
L 323.854044 60.813474 
L 320.122382 55.811368 
L 316.390721 55.811368 
L 312.65906 55.811368 
L 308.927398 57.478737 
L 305.195737 54.144 
L 301.464075 54.144 
L 297.732414 54.144 
L 294.000752 55.811368 
L 290.269091 55.811368 
L 286.537429 57.478737 
L 282.805768 57.478737 
L 279.074107 57.478737 
L 275.342445 57.478737 
L 271.610784 54.144 
L 267.879122 55.811368 
L 264.147461 55.811368 
L 260.415799 55.811368 
L 256.684138 54.144 
L 252.952476 55.811368 
L 249.220815 55.811368 
L 245.489154 59.146105 
L 241.757492 59.146105 
L 238.025831 57.478737 
L 234.294169 55.811368 
L 230.562508 54.144 
L 226.830846 57.478737 
L 223.099185 59.146105 
L 219.367524 55.811368 
L 215.635862 57.478737 
L 211.904201 57.478737 
L 208.172539 57.478737 
L 204.440878 55.811368 
L 200.709216 57.478737 
L 196.977555 57.478737 
L 193.245893 57.478737 
L 189.514232 59.146105 
L 185.782571 57.478737 
L 182.050909 55.811368 
L 178.319248 55.811368 
L 174.587586 55.811368 
L 170.855925 55.811368 
L 167.124263 59.146105 
L 163.392602 59.146105 
L 159.66094 59.146105 
L 155.929279 59.146105 
L 152.197618 59.146105 
L 148.465956 57.478737 
L 144.734295 55.811368 
L 141.002633 57.478737 
L 137.270972 57.478737 
L 133.53931 57.478737 
L 129.807649 57.478737 
L 126.075987 57.478737 
L 122.344326 57.478737 
L 118.612665 57.478737 
L 114.881003 57.478737 
L 111.149342 57.478737 
L 107.41768 57.478737 
L 103.686019 57.478737 
L 99.954357 57.478737 
L 96.222696 57.478737 
L 92.491034 57.478737 
L 88.759373 57.478737 
L 85.027712 57.478737 
L 81.29605 57.478737 
L 77.564389 57.478737 
L 73.832727 57.478737 
z
" style="fill:#8c564b;"/>
   </g>
   <g id="matplotlib.axis_1">
    <g id="xtick_1">
     <g id="line2d_1">
      <defs>
       <path d="M 0 0 
L 0 3.5 
" id="m2ad1bf8c83" style="stroke:#000000;stroke-width:0.8;"/>
      </defs>
      <g>
       <use style="stroke:#000000;stroke-width:0.8;" x="73.832727" xlink:href="#m2ad1bf8c83" y="307.584"/>
      </g>
     </g>
     <g id="text_1">
      <!-- 0 -->
      <defs>
       <path d="M 31.78125 66.40625 
Q 24.171875 66.40625 20.328125 58.90625 
Q 16.5 51.421875 16.5 36.375 
Q 16.5 21.390625 20.328125 13.890625 
Q 24.171875 6.390625 31.78125 6.390625 
Q 39.453125 6.390625 43.28125 13.890625 
Q 47.125 21.390625 47.125 36.375 
Q 47.125 51.421875 43.28125 58.90625 
Q 39.453125 66.40625 31.78125 66.40625 
z
M 31.78125 74.21875 
Q 44.046875 74.21875 50.515625 64.515625 
Q 56.984375 54.828125 56.984375 36.375 
Q 56.984375 17.96875 50.515625 8.265625 
Q 44.046875 -1.421875 31.78125 -1.421875 
Q 19.53125 -1.421875 13.0625 8.265625 
Q 6.59375 17.96875 6.59375 36.375 
Q 6.59375 54.828125 13.0625 64.515625 
Q 19.53125 74.21875 31.78125 74.21875 
z
" id="DejaVuSans-48"/>
      </defs>
      <g transform="translate(70.651477 322.182437)scale(0.1 -0.1)">
       <use xlink:href="#DejaVuSans-48"/>
      </g>
     </g>
    </g>
    <g id="xtick_2">
     <g id="line2d_2">
      <g>
       <use style="stroke:#000000;stroke-width:0.8;" x="148.465956" xlink:href="#m2ad1bf8c83" y="307.584"/>
      </g>
     </g>
     <g id="text_2">
      <!-- 20 -->
      <defs>
       <path d="M 19.1875 8.296875 
L 53.609375 8.296875 
L 53.609375 0 
L 7.328125 0 
L 7.328125 8.296875 
Q 12.9375 14.109375 22.625 23.890625 
Q 32.328125 33.6875 34.8125 36.53125 
Q 39.546875 41.84375 41.421875 45.53125 
Q 43.3125 49.21875 43.3125 52.78125 
Q 43.3125 58.59375 39.234375 62.25 
Q 35.15625 65.921875 28.609375 65.921875 
Q 23.96875 65.921875 18.8125 64.3125 
Q 13.671875 62.703125 7.8125 59.421875 
L 7.8125 69.390625 
Q 13.765625 71.78125 18.9375 73 
Q 24.125 74.21875 28.421875 74.21875 
Q 39.75 74.21875 46.484375 68.546875 
Q 53.21875 62.890625 53.21875 53.421875 
Q 53.21875 48.921875 51.53125 44.890625 
Q 49.859375 40.875 45.40625 35.40625 
Q 44.1875 33.984375 37.640625 27.21875 
Q 31.109375 20.453125 19.1875 8.296875 
z
" id="DejaVuSans-50"/>
      </defs>
      <g transform="translate(142.103456 322.182437)scale(0.1 -0.1)">
       <use xlink:href="#DejaVuSans-50"/>
       <use x="63.623047" xlink:href="#DejaVuSans-48"/>
      </g>
     </g>
    </g>
    <g id="xtick_3">
     <g id="line2d_3">
      <g>
       <use style="stroke:#000000;stroke-width:0.8;" x="223.099185" xlink:href="#m2ad1bf8c83" y="307.584"/>
      </g>
     </g>
     <g id="text_3">
      <!-- 40 -->
      <defs>
       <path d="M 37.796875 64.3125 
L 12.890625 25.390625 
L 37.796875 25.390625 
z
M 35.203125 72.90625 
L 47.609375 72.90625 
L 47.609375 25.390625 
L 58.015625 25.390625 
L 58.015625 17.1875 
L 47.609375 17.1875 
L 47.609375 0 
L 37.796875 0 
L 37.796875 17.1875 
L 4.890625 17.1875 
L 4.890625 26.703125 
z
" id="DejaVuSans-52"/>
      </defs>
      <g transform="translate(216.736685 322.182437)scale(0.1 -0.1)">
       <use xlink:href="#DejaVuSans-52"/>
       <use x="63.623047" xlink:href="#DejaVuSans-48"/>
      </g>
     </g>
    </g>
    <g id="xtick_4">
     <g id="line2d_4">
      <g>
       <use style="stroke:#000000;stroke-width:0.8;" x="297.732414" xlink:href="#m2ad1bf8c83" y="307.584"/>
      </g>
     </g>
     <g id="text_4">
      <!-- 60 -->
      <defs>
       <path d="M 33.015625 40.375 
Q 26.375 40.375 22.484375 35.828125 
Q 18.609375 31.296875 18.609375 23.390625 
Q 18.609375 15.53125 22.484375 10.953125 
Q 26.375 6.390625 33.015625 6.390625 
Q 39.65625 6.390625 43.53125 10.953125 
Q 47.40625 15.53125 47.40625 23.390625 
Q 47.40625 31.296875 43.53125 35.828125 
Q 39.65625 40.375 33.015625 40.375 
z
M 52.59375 71.296875 
L 52.59375 62.3125 
Q 48.875 64.0625 45.09375 64.984375 
Q 41.3125 65.921875 37.59375 65.921875 
Q 27.828125 65.921875 22.671875 59.328125 
Q 17.53125 52.734375 16.796875 39.40625 
Q 19.671875 43.65625 24.015625 45.921875 
Q 28.375 48.1875 33.59375 48.1875 
Q 44.578125 48.1875 50.953125 41.515625 
Q 57.328125 34.859375 57.328125 23.390625 
Q 57.328125 12.15625 50.6875 5.359375 
Q 44.046875 -1.421875 33.015625 -1.421875 
Q 20.359375 -1.421875 13.671875 8.265625 
Q 6.984375 17.96875 6.984375 36.375 
Q 6.984375 53.65625 15.1875 63.9375 
Q 23.390625 74.21875 37.203125 74.21875 
Q 40.921875 74.21875 44.703125 73.484375 
Q 48.484375 72.75 52.59375 71.296875 
z
" id="DejaVuSans-54"/>
      </defs>
      <g transform="translate(291.369914 322.182437)scale(0.1 -0.1)">
       <use xlink:href="#DejaVuSans-54"/>
       <use x="63.623047" xlink:href="#DejaVuSans-48"/>
      </g>
     </g>
    </g>
    <g id="xtick_5">
     <g id="line2d_5">
      <g>
       <use style="stroke:#000000;stroke-width:0.8;" x="372.365643" xlink:href="#m2ad1bf8c83" y="307.584"/>
      </g>
     </g>
     <g id="text_5">
      <!-- 80 -->
      <defs>
       <path d="M 31.78125 34.625 
Q 24.75 34.625 20.71875 30.859375 
Q 16.703125 27.09375 16.703125 20.515625 
Q 16.703125 13.921875 20.71875 10.15625 
Q 24.75 6.390625 31.78125 6.390625 
Q 38.8125 6.390625 42.859375 10.171875 
Q 46.921875 13.96875 46.921875 20.515625 
Q 46.921875 27.09375 42.890625 30.859375 
Q 38.875 34.625 31.78125 34.625 
z
M 21.921875 38.8125 
Q 15.578125 40.375 12.03125 44.71875 
Q 8.5 49.078125 8.5 55.328125 
Q 8.5 64.0625 14.71875 69.140625 
Q 20.953125 74.21875 31.78125 74.21875 
Q 42.671875 74.21875 48.875 69.140625 
Q 55.078125 64.0625 55.078125 55.328125 
Q 55.078125 49.078125 51.53125 44.71875 
Q 48 40.375 41.703125 38.8125 
Q 48.828125 37.15625 52.796875 32.3125 
Q 56.78125 27.484375 56.78125 20.515625 
Q 56.78125 9.90625 50.3125 4.234375 
Q 43.84375 -1.421875 31.78125 -1.421875 
Q 19.734375 -1.421875 13.25 4.234375 
Q 6.78125 9.90625 6.78125 20.515625 
Q 6.78125 27.484375 10.78125 32.3125 
Q 14.796875 37.15625 21.921875 38.8125 
z
M 18.3125 54.390625 
Q 18.3125 48.734375 21.84375 45.5625 
Q 25.390625 42.390625 31.78125 42.390625 
Q 38.140625 42.390625 41.71875 45.5625 
Q 45.3125 48.734375 45.3125 54.390625 
Q 45.3125 60.0625 41.71875 63.234375 
Q 38.140625 66.40625 31.78125 66.40625 
Q 25.390625 66.40625 21.84375 63.234375 
Q 18.3125 60.0625 18.3125 54.390625 
z
" id="DejaVuSans-56"/>
      </defs>
      <g transform="translate(366.003143 322.182437)scale(0.1 -0.1)">
       <use xlink:href="#DejaVuSans-56"/>
       <use x="63.623047" xlink:href="#DejaVuSans-48"/>
      </g>
     </g>
    </g>
    <g id="text_6">
     <!-- Generations -->
     <defs>
      <path d="M 59.515625 10.40625 
L 59.515625 29.984375 
L 43.40625 29.984375 
L 43.40625 38.09375 
L 69.28125 38.09375 
L 69.28125 6.78125 
Q 63.578125 2.734375 56.6875 0.65625 
Q 49.8125 -1.421875 42 -1.421875 
Q 24.90625 -1.421875 15.25 8.5625 
Q 5.609375 18.5625 5.609375 36.375 
Q 5.609375 54.25 15.25 64.234375 
Q 24.90625 74.21875 42 74.21875 
Q 49.125 74.21875 55.546875 72.453125 
Q 61.96875 70.703125 67.390625 67.28125 
L 67.390625 56.78125 
Q 61.921875 61.421875 55.765625 63.765625 
Q 49.609375 66.109375 42.828125 66.109375 
Q 29.4375 66.109375 22.71875 58.640625 
Q 16.015625 51.171875 16.015625 36.375 
Q 16.015625 21.625 22.71875 14.15625 
Q 29.4375 6.6875 42.828125 6.6875 
Q 48.046875 6.6875 52.140625 7.59375 
Q 56.25 8.5 59.515625 10.40625 
z
" id="DejaVuSans-71"/>
      <path d="M 56.203125 29.59375 
L 56.203125 25.203125 
L 14.890625 25.203125 
Q 15.484375 15.921875 20.484375 11.0625 
Q 25.484375 6.203125 34.421875 6.203125 
Q 39.59375 6.203125 44.453125 7.46875 
Q 49.3125 8.734375 54.109375 11.28125 
L 54.109375 2.78125 
Q 49.265625 0.734375 44.1875 -0.34375 
Q 39.109375 -1.421875 33.890625 -1.421875 
Q 20.796875 -1.421875 13.15625 6.1875 
Q 5.515625 13.8125 5.515625 26.8125 
Q 5.515625 40.234375 12.765625 48.109375 
Q 20.015625 56 32.328125 56 
Q 43.359375 56 49.78125 48.890625 
Q 56.203125 41.796875 56.203125 29.59375 
z
M 47.21875 32.234375 
Q 47.125 39.59375 43.09375 43.984375 
Q 39.0625 48.390625 32.421875 48.390625 
Q 24.90625 48.390625 20.390625 44.140625 
Q 15.875 39.890625 15.1875 32.171875 
z
" id="DejaVuSans-101"/>
      <path d="M 54.890625 33.015625 
L 54.890625 0 
L 45.90625 0 
L 45.90625 32.71875 
Q 45.90625 40.484375 42.875 44.328125 
Q 39.84375 48.1875 33.796875 48.1875 
Q 26.515625 48.1875 22.3125 43.546875 
Q 18.109375 38.921875 18.109375 30.90625 
L 18.109375 0 
L 9.078125 0 
L 9.078125 54.6875 
L 18.109375 54.6875 
L 18.109375 46.1875 
Q 21.34375 51.125 25.703125 53.5625 
Q 30.078125 56 35.796875 56 
Q 45.21875 56 50.046875 50.171875 
Q 54.890625 44.34375 54.890625 33.015625 
z
" id="DejaVuSans-110"/>
      <path d="M 41.109375 46.296875 
Q 39.59375 47.171875 37.8125 47.578125 
Q 36.03125 48 33.890625 48 
Q 26.265625 48 22.1875 43.046875 
Q 18.109375 38.09375 18.109375 28.8125 
L 18.109375 0 
L 9.078125 0 
L 9.078125 54.6875 
L 18.109375 54.6875 
L 18.109375 46.1875 
Q 20.953125 51.171875 25.484375 53.578125 
Q 30.03125 56 36.53125 56 
Q 37.453125 56 38.578125 55.875 
Q 39.703125 55.765625 41.0625 55.515625 
z
" id="DejaVuSans-114"/>
      <path d="M 34.28125 27.484375 
Q 23.390625 27.484375 19.1875 25 
Q 14.984375 22.515625 14.984375 16.5 
Q 14.984375 11.71875 18.140625 8.90625 
Q 21.296875 6.109375 26.703125 6.109375 
Q 34.1875 6.109375 38.703125 11.40625 
Q 43.21875 16.703125 43.21875 25.484375 
L 43.21875 27.484375 
z
M 52.203125 31.203125 
L 52.203125 0 
L 43.21875 0 
L 43.21875 8.296875 
Q 40.140625 3.328125 35.546875 0.953125 
Q 30.953125 -1.421875 24.3125 -1.421875 
Q 15.921875 -1.421875 10.953125 3.296875 
Q 6 8.015625 6 15.921875 
Q 6 25.140625 12.171875 29.828125 
Q 18.359375 34.515625 30.609375 34.515625 
L 43.21875 34.515625 
L 43.21875 35.40625 
Q 43.21875 41.609375 39.140625 45 
Q 35.0625 48.390625 27.6875 48.390625 
Q 23 48.390625 18.546875 47.265625 
Q 14.109375 46.140625 10.015625 43.890625 
L 10.015625 52.203125 
Q 14.9375 54.109375 19.578125 55.046875 
Q 24.21875 56 28.609375 56 
Q 40.484375 56 46.34375 49.84375 
Q 52.203125 43.703125 52.203125 31.203125 
z
" id="DejaVuSans-97"/>
      <path d="M 18.3125 70.21875 
L 18.3125 54.6875 
L 36.8125 54.6875 
L 36.8125 47.703125 
L 18.3125 47.703125 
L 18.3125 18.015625 
Q 18.3125 11.328125 20.140625 9.421875 
Q 21.96875 7.515625 27.59375 7.515625 
L 36.8125 7.515625 
L 36.8125 0 
L 27.59375 0 
Q 17.1875 0 13.234375 3.875 
Q 9.28125 7.765625 9.28125 18.015625 
L 9.28125 47.703125 
L 2.6875 47.703125 
L 2.6875 54.6875 
L 9.28125 54.6875 
L 9.28125 70.21875 
z
" id="DejaVuSans-116"/>
      <path d="M 9.421875 54.6875 
L 18.40625 54.6875 
L 18.40625 0 
L 9.421875 0 
z
M 9.421875 75.984375 
L 18.40625 75.984375 
L 18.40625 64.59375 
L 9.421875 64.59375 
z
" id="DejaVuSans-105"/>
      <path d="M 30.609375 48.390625 
Q 23.390625 48.390625 19.1875 42.75 
Q 14.984375 37.109375 14.984375 27.296875 
Q 14.984375 17.484375 19.15625 11.84375 
Q 23.34375 6.203125 30.609375 6.203125 
Q 37.796875 6.203125 41.984375 11.859375 
Q 46.1875 17.53125 46.1875 27.296875 
Q 46.1875 37.015625 41.984375 42.703125 
Q 37.796875 48.390625 30.609375 48.390625 
z
M 30.609375 56 
Q 42.328125 56 49.015625 48.375 
Q 55.71875 40.765625 55.71875 27.296875 
Q 55.71875 13.875 49.015625 6.21875 
Q 42.328125 -1.421875 30.609375 -1.421875 
Q 18.84375 -1.421875 12.171875 6.21875 
Q 5.515625 13.875 5.515625 27.296875 
Q 5.515625 40.765625 12.171875 48.375 
Q 18.84375 56 30.609375 56 
z
" id="DejaVuSans-111"/>
      <path d="M 44.28125 53.078125 
L 44.28125 44.578125 
Q 40.484375 46.53125 36.375 47.5 
Q 32.28125 48.484375 27.875 48.484375 
Q 21.1875 48.484375 17.84375 46.4375 
Q 14.5 44.390625 14.5 40.28125 
Q 14.5 37.15625 16.890625 35.375 
Q 19.28125 33.59375 26.515625 31.984375 
L 29.59375 31.296875 
Q 39.15625 29.25 43.1875 25.515625 
Q 47.21875 21.78125 47.21875 15.09375 
Q 47.21875 7.46875 41.1875 3.015625 
Q 35.15625 -1.421875 24.609375 -1.421875 
Q 20.21875 -1.421875 15.453125 -0.5625 
Q 10.6875 0.296875 5.421875 2 
L 5.421875 11.28125 
Q 10.40625 8.6875 15.234375 7.390625 
Q 20.0625 6.109375 24.8125 6.109375 
Q 31.15625 6.109375 34.5625 8.28125 
Q 37.984375 10.453125 37.984375 14.40625 
Q 37.984375 18.0625 35.515625 20.015625 
Q 33.0625 21.96875 24.703125 23.78125 
L 21.578125 24.515625 
Q 13.234375 26.265625 9.515625 29.90625 
Q 5.8125 33.546875 5.8125 39.890625 
Q 5.8125 47.609375 11.28125 51.796875 
Q 16.75 56 26.8125 56 
Q 31.78125 56 36.171875 55.265625 
Q 40.578125 54.546875 44.28125 53.078125 
z
" id="DejaVuSans-115"/>
     </defs>
     <g transform="translate(205.662344 335.860562)scale(0.1 -0.1)">
      <use xlink:href="#DejaVuSans-71"/>
      <use x="77.490234" xlink:href="#DejaVuSans-101"/>
      <use x="139.013672" xlink:href="#DejaVuSans-110"/>
      <use x="202.392578" xlink:href="#DejaVuSans-101"/>
      <use x="263.916016" xlink:href="#DejaVuSans-114"/>
      <use x="305.029297" xlink:href="#DejaVuSans-97"/>
      <use x="366.308594" xlink:href="#DejaVuSans-116"/>
      <use x="405.517578" xlink:href="#DejaVuSans-105"/>
      <use x="433.300781" xlink:href="#DejaVuSans-111"/>
      <use x="494.482422" xlink:href="#DejaVuSans-110"/>
      <use x="557.861328" xlink:href="#DejaVuSans-115"/>
     </g>
    </g>
   </g>
   <g id="matplotlib.axis_2">
    <g id="ytick_1">
     <g id="line2d_6">
      <defs>
       <path d="M 0 0 
L -3.5 0 
" id="m7448119e9a" style="stroke:#000000;stroke-width:0.8;"/>
      </defs>
      <g>
       <use style="stroke:#000000;stroke-width:0.8;" x="57.6" xlink:href="#m7448119e9a" y="307.584"/>
      </g>
     </g>
     <g id="text_7">
      <!-- 0 -->
      <g transform="translate(44.2375 311.383219)scale(0.1 -0.1)">
       <use xlink:href="#DejaVuSans-48"/>
      </g>
     </g>
    </g>
    <g id="ytick_2">
     <g id="line2d_7">
      <g>
       <use style="stroke:#000000;stroke-width:0.8;" x="57.6" xlink:href="#m7448119e9a" y="274.236632"/>
      </g>
     </g>
     <g id="text_8">
      <!-- 20 -->
      <g transform="translate(37.875 278.03585)scale(0.1 -0.1)">
       <use xlink:href="#DejaVuSans-50"/>
       <use x="63.623047" xlink:href="#DejaVuSans-48"/>
      </g>
     </g>
    </g>
    <g id="ytick_3">
     <g id="line2d_8">
      <g>
       <use style="stroke:#000000;stroke-width:0.8;" x="57.6" xlink:href="#m7448119e9a" y="240.889263"/>
      </g>
     </g>
     <g id="text_9">
      <!-- 40 -->
      <g transform="translate(37.875 244.688482)scale(0.1 -0.1)">
       <use xlink:href="#DejaVuSans-52"/>
       <use x="63.623047" xlink:href="#DejaVuSans-48"/>
      </g>
     </g>
    </g>
    <g id="ytick_4">
     <g id="line2d_9">
      <g>
       <use style="stroke:#000000;stroke-width:0.8;" x="57.6" xlink:href="#m7448119e9a" y="207.541895"/>
      </g>
     </g>
     <g id="text_10">
      <!-- 60 -->
      <g transform="translate(37.875 211.341113)scale(0.1 -0.1)">
       <use xlink:href="#DejaVuSans-54"/>
       <use x="63.623047" xlink:href="#DejaVuSans-48"/>
      </g>
     </g>
    </g>
    <g id="ytick_5">
     <g id="line2d_10">
      <g>
       <use style="stroke:#000000;stroke-width:0.8;" x="57.6" xlink:href="#m7448119e9a" y="174.194526"/>
      </g>
     </g>
     <g id="text_11">
      <!-- 80 -->
      <g transform="translate(37.875 177.993745)scale(0.1 -0.1)">
       <use xlink:href="#DejaVuSans-56"/>
       <use x="63.623047" xlink:href="#DejaVuSans-48"/>
      </g>
     </g>
    </g>
    <g id="ytick_6">
     <g id="line2d_11">
      <g>
       <use style="stroke:#000000;stroke-width:0.8;" x="57.6" xlink:href="#m7448119e9a" y="140.847158"/>
      </g>
     </g>
     <g id="text_12">
      <!-- 100 -->
      <defs>
       <path d="M 12.40625 8.296875 
L 28.515625 8.296875 
L 28.515625 63.921875 
L 10.984375 60.40625 
L 10.984375 69.390625 
L 28.421875 72.90625 
L 38.28125 72.90625 
L 38.28125 8.296875 
L 54.390625 8.296875 
L 54.390625 0 
L 12.40625 0 
z
" id="DejaVuSans-49"/>
      </defs>
      <g transform="translate(31.5125 144.646377)scale(0.1 -0.1)">
       <use xlink:href="#DejaVuSans-49"/>
       <use x="63.623047" xlink:href="#DejaVuSans-48"/>
       <use x="127.246094" xlink:href="#DejaVuSans-48"/>
      </g>
     </g>
    </g>
    <g id="ytick_7">
     <g id="line2d_12">
      <g>
       <use style="stroke:#000000;stroke-width:0.8;" x="57.6" xlink:href="#m7448119e9a" y="107.499789"/>
      </g>
     </g>
     <g id="text_13">
      <!-- 120 -->
      <g transform="translate(31.5125 111.299008)scale(0.1 -0.1)">
       <use xlink:href="#DejaVuSans-49"/>
       <use x="63.623047" xlink:href="#DejaVuSans-50"/>
       <use x="127.246094" xlink:href="#DejaVuSans-48"/>
      </g>
     </g>
    </g>
    <g id="ytick_8">
     <g id="line2d_13">
      <g>
       <use style="stroke:#000000;stroke-width:0.8;" x="57.6" xlink:href="#m7448119e9a" y="74.152421"/>
      </g>
     </g>
     <g id="text_14">
      <!-- 140 -->
      <g transform="translate(31.5125 77.95164)scale(0.1 -0.1)">
       <use xlink:href="#DejaVuSans-49"/>
       <use x="63.623047" xlink:href="#DejaVuSans-52"/>
       <use x="127.246094" xlink:href="#DejaVuSans-48"/>
      </g>
     </g>
    </g>
    <g id="text_15">
     <!-- Size per Species -->
     <defs>
      <path d="M 53.515625 70.515625 
L 53.515625 60.890625 
Q 47.90625 63.578125 42.921875 64.890625 
Q 37.9375 66.21875 33.296875 66.21875 
Q 25.25 66.21875 20.875 63.09375 
Q 16.5 59.96875 16.5 54.203125 
Q 16.5 49.359375 19.40625 46.890625 
Q 22.3125 44.4375 30.421875 42.921875 
L 36.375 41.703125 
Q 47.40625 39.59375 52.65625 34.296875 
Q 57.90625 29 57.90625 20.125 
Q 57.90625 9.515625 50.796875 4.046875 
Q 43.703125 -1.421875 29.984375 -1.421875 
Q 24.8125 -1.421875 18.96875 -0.25 
Q 13.140625 0.921875 6.890625 3.21875 
L 6.890625 13.375 
Q 12.890625 10.015625 18.65625 8.296875 
Q 24.421875 6.59375 29.984375 6.59375 
Q 38.421875 6.59375 43.015625 9.90625 
Q 47.609375 13.234375 47.609375 19.390625 
Q 47.609375 24.75 44.3125 27.78125 
Q 41.015625 30.8125 33.5 32.328125 
L 27.484375 33.5 
Q 16.453125 35.6875 11.515625 40.375 
Q 6.59375 45.0625 6.59375 53.421875 
Q 6.59375 63.09375 13.40625 68.65625 
Q 20.21875 74.21875 32.171875 74.21875 
Q 37.3125 74.21875 42.625 73.28125 
Q 47.953125 72.359375 53.515625 70.515625 
z
" id="DejaVuSans-83"/>
      <path d="M 5.515625 54.6875 
L 48.1875 54.6875 
L 48.1875 46.484375 
L 14.40625 7.171875 
L 48.1875 7.171875 
L 48.1875 0 
L 4.296875 0 
L 4.296875 8.203125 
L 38.09375 47.515625 
L 5.515625 47.515625 
z
" id="DejaVuSans-122"/>
      <path id="DejaVuSans-32"/>
      <path d="M 18.109375 8.203125 
L 18.109375 -20.796875 
L 9.078125 -20.796875 
L 9.078125 54.6875 
L 18.109375 54.6875 
L 18.109375 46.390625 
Q 20.953125 51.265625 25.265625 53.625 
Q 29.59375 56 35.59375 56 
Q 45.5625 56 51.78125 48.09375 
Q 58.015625 40.1875 58.015625 27.296875 
Q 58.015625 14.40625 51.78125 6.484375 
Q 45.5625 -1.421875 35.59375 -1.421875 
Q 29.59375 -1.421875 25.265625 0.953125 
Q 20.953125 3.328125 18.109375 8.203125 
z
M 48.6875 27.296875 
Q 48.6875 37.203125 44.609375 42.84375 
Q 40.53125 48.484375 33.40625 48.484375 
Q 26.265625 48.484375 22.1875 42.84375 
Q 18.109375 37.203125 18.109375 27.296875 
Q 18.109375 17.390625 22.1875 11.75 
Q 26.265625 6.109375 33.40625 6.109375 
Q 40.53125 6.109375 44.609375 11.75 
Q 48.6875 17.390625 48.6875 27.296875 
z
" id="DejaVuSans-112"/>
      <path d="M 48.78125 52.59375 
L 48.78125 44.1875 
Q 44.96875 46.296875 41.140625 47.34375 
Q 37.3125 48.390625 33.40625 48.390625 
Q 24.65625 48.390625 19.8125 42.84375 
Q 14.984375 37.3125 14.984375 27.296875 
Q 14.984375 17.28125 19.8125 11.734375 
Q 24.65625 6.203125 33.40625 6.203125 
Q 37.3125 6.203125 41.140625 7.25 
Q 44.96875 8.296875 48.78125 10.40625 
L 48.78125 2.09375 
Q 45.015625 0.34375 40.984375 -0.53125 
Q 36.96875 -1.421875 32.421875 -1.421875 
Q 20.0625 -1.421875 12.78125 6.34375 
Q 5.515625 14.109375 5.515625 27.296875 
Q 5.515625 40.671875 12.859375 48.328125 
Q 20.21875 56 33.015625 56 
Q 37.15625 56 41.109375 55.140625 
Q 45.0625 54.296875 48.78125 52.59375 
z
" id="DejaVuSans-99"/>
     </defs>
     <g transform="translate(25.432812 215.520969)rotate(-90)scale(0.1 -0.1)">
      <use xlink:href="#DejaVuSans-83"/>
      <use x="63.476562" xlink:href="#DejaVuSans-105"/>
      <use x="91.259766" xlink:href="#DejaVuSans-122"/>
      <use x="143.75" xlink:href="#DejaVuSans-101"/>
      <use x="205.273438" xlink:href="#DejaVuSans-32"/>
      <use x="237.060547" xlink:href="#DejaVuSans-112"/>
      <use x="300.537109" xlink:href="#DejaVuSans-101"/>
      <use x="362.060547" xlink:href="#DejaVuSans-114"/>
      <use x="403.173828" xlink:href="#DejaVuSans-32"/>
      <use x="434.960938" xlink:href="#DejaVuSans-83"/>
      <use x="498.4375" xlink:href="#DejaVuSans-112"/>
      <use x="561.914062" xlink:href="#DejaVuSans-101"/>
      <use x="623.4375" xlink:href="#DejaVuSans-99"/>
      <use x="678.417969" xlink:href="#DejaVuSans-105"/>
      <use x="706.201172" xlink:href="#DejaVuSans-101"/>
      <use x="767.724609" xlink:href="#DejaVuSans-115"/>
     </g>
    </g>
   </g>
   <g id="patch_3">
    <path d="M 57.6 307.584 
L 57.6 41.472 
" style="fill:none;stroke:#000000;stroke-linecap:square;stroke-linejoin:miter;stroke-width:0.8;"/>
   </g>
   <g id="patch_4">
    <path d="M 414.72 307.584 
L 414.72 41.472 
" style="fill:none;stroke:#000000;stroke-linecap:square;stroke-linejoin:miter;stroke-width:0.8;"/>
   </g>
   <g id="patch_5">
    <path d="M 57.6 307.584 
L 414.72 307.584 
" style="fill:none;stroke:#000000;stroke-linecap:square;stroke-linejoin:miter;stroke-width:0.8;"/>
   </g>
   <g id="patch_6">
    <path d="M 57.6 41.472 
L 414.72 41.472 
" style="fill:none;stroke:#000000;stroke-linecap:square;stroke-linejoin:miter;stroke-width:0.8;"/>
   </g>
   <g id="text_16">
    <!-- Speciation -->
    <g transform="translate(204.714375 35.472)scale(0.12 -0.12)">
     <use xlink:href="#DejaVuSans-83"/>
     <use x="63.476562" xlink:href="#DejaVuSans-112"/>
     <use x="126.953125" xlink:href="#DejaVuSans-101"/>
     <use x="188.476562" xlink:href="#DejaVuSans-99"/>
     <use x="243.457031" xlink:href="#DejaVuSans-105"/>
     <use x="271.240234" xlink:href="#DejaVuSans-97"/>
     <use x="332.519531" xlink:href="#DejaVuSans-116"/>
     <use x="371.728516" xlink:href="#DejaVuSans-105"/>
     <use x="399.511719" xlink:href="#DejaVuSans-111"/>
     <use x="460.693359" xlink:href="#DejaVuSans-110"/>
    </g>
   </g>
  </g>
 </g>
 <defs>
  <clipPath id="pd272e2e6b4">
   <rect height="266.112" width="357.12" x="57.6" y="41.472"/>
  </clipPath>
 </defs>
</svg>
